<svg id="svg" version="1.1" xmlns="http://www.w3.org/2000/svg" xmlns:xlink="http://www.w3.org/1999/xlink" width="400" height="400" viewBox="0, 0, 400,400"><g id="svgg"><path id="path0" d="M153.400 6.434 C 142.945 7.571,129.428 10.103,126.969 11.385 C 126.326 11.721,125.513 11.996,125.163 11.998 C 123.268 12.005,105.426 19.111,102.516 21.018 C 101.919 21.409,100.164 22.375,98.615 23.165 C 97.067 23.954,95.740 24.735,95.667 24.900 C 95.593 25.065,95.278 25.200,94.967 25.200 C 94.655 25.200,94.400 25.380,94.400 25.600 C 94.400 25.820,94.226 26.000,94.013 26.000 C 93.427 26.000,89.462 28.651,85.038 32.000 C 82.859 33.650,80.789 35.180,80.438 35.400 C 76.519 37.856,59.200 55.122,59.200 56.574 C 59.200 56.705,58.165 58.136,56.900 59.754 C 52.919 64.846,50.379 68.532,48.403 72.083 C 48.071 72.679,46.855 74.861,45.700 76.933 C 44.545 79.004,43.600 80.887,43.600 81.116 C 43.600 81.346,43.447 81.593,43.260 81.667 C 42.944 81.790,40.358 87.579,39.178 90.800 C 38.897 91.570,38.501 92.417,38.300 92.681 C 37.838 93.288,34.800 102.339,34.800 103.108 C 34.800 103.422,34.546 104.246,34.234 104.940 C 32.993 107.707,31.196 116.064,30.309 123.200 C 30.050 125.290,29.712 127.090,29.560 127.200 C 28.136 128.225,28.206 159.895,29.634 161.380 C 29.836 161.589,30.001 162.309,30.002 162.980 C 30.007 165.727,33.171 181.985,34.007 183.559 C 34.195 183.911,35.173 186.796,36.181 189.968 C 37.190 193.140,38.158 195.930,38.333 196.168 C 38.508 196.406,39.145 197.860,39.748 199.400 C 41.214 203.145,46.804 214.142,48.725 217.061 C 49.571 218.347,50.610 220.009,51.032 220.754 C 51.454 221.499,52.204 222.579,52.699 223.154 C 53.193 223.729,53.913 224.777,54.299 225.483 C 56.769 230.002,68.957 243.363,76.826 250.179 C 81.125 253.904,88.459 259.600,88.954 259.600 C 89.104 259.600,90.526 260.477,92.114 261.548 C 93.701 262.620,96.070 263.891,97.378 264.372 C 98.687 264.854,100.217 265.501,100.778 265.811 C 102.380 266.695,106.335 268.235,109.400 269.168 C 110.940 269.637,112.740 270.266,113.400 270.566 C 116.663 272.048,116.741 271.977,118.597 265.800 C 119.192 263.820,119.899 261.840,120.169 261.400 C 120.438 260.960,121.612 257.630,122.777 254.000 C 123.943 250.370,125.036 247.220,125.207 247.000 C 125.378 246.780,126.369 243.990,127.408 240.800 C 128.448 237.610,129.434 234.820,129.601 234.600 C 129.767 234.380,130.740 231.680,131.764 228.600 C 132.788 225.520,133.954 222.280,134.354 221.400 C 134.755 220.520,135.850 217.550,136.788 214.800 C 137.726 212.050,138.653 209.600,138.849 209.356 C 139.044 209.112,139.456 208.122,139.764 207.156 C 140.932 203.497,142.907 198.208,143.400 197.420 C 143.683 196.969,144.314 195.430,144.802 194.000 C 145.291 192.570,146.192 190.320,146.804 189.000 C 147.999 186.427,150.146 181.212,151.086 178.600 C 151.403 177.720,151.986 176.460,152.382 175.800 C 152.777 175.140,153.873 172.800,154.816 170.600 C 155.759 168.400,156.663 166.420,156.825 166.200 C 156.986 165.980,158.027 163.989,159.136 161.775 C 160.246 159.561,161.975 156.419,162.977 154.793 C 163.980 153.167,164.800 151.688,164.800 151.506 C 164.800 151.105,168.618 145.586,171.376 142.000 C 179.122 131.930,187.402 125.275,196.200 122.046 C 198.180 121.320,200.071 120.588,200.402 120.421 C 203.595 118.803,213.952 117.569,224.600 117.537 C 237.563 117.499,247.813 118.414,272.000 121.769 C 277.610 122.547,282.420 123.187,282.688 123.192 C 283.468 123.205,285.693 117.964,288.119 110.400 C 288.366 109.630,288.681 108.910,288.820 108.800 C 288.958 108.690,289.843 106.350,290.785 103.600 C 291.727 100.850,292.728 98.229,293.008 97.776 C 293.512 96.963,296.089 89.919,296.877 87.200 C 297.100 86.430,297.450 85.595,297.653 85.345 C 297.857 85.095,298.829 82.591,299.815 79.780 C 300.800 76.970,301.884 74.115,302.225 73.436 C 302.566 72.756,303.644 69.878,304.622 67.041 C 305.600 64.203,306.555 61.683,306.744 61.441 C 306.933 61.198,307.947 58.480,308.996 55.400 C 310.046 52.320,311.124 49.440,311.392 49.000 C 311.660 48.560,312.565 46.220,313.402 43.800 C 314.239 41.380,315.322 38.500,315.808 37.400 C 316.294 36.300,317.369 33.420,318.197 31.000 C 319.025 28.580,319.952 26.150,320.258 25.600 C 320.816 24.596,323.717 16.620,324.477 14.000 C 324.700 13.230,325.042 12.404,325.236 12.165 C 325.585 11.736,326.562 9.230,327.210 7.100 L 327.544 6.000 241.872 6.065 C 194.752 6.100,154.940 6.266,153.400 6.434 M282.994 128.677 C 282.654 129.489,282.267 130.614,282.133 131.177 C 281.999 131.739,281.751 132.380,281.582 132.600 C 281.413 132.820,280.425 135.520,279.387 138.600 C 278.349 141.680,277.362 144.380,277.193 144.600 C 277.024 144.820,275.947 147.790,274.800 151.200 C 273.653 154.610,272.572 157.580,272.399 157.800 C 272.226 158.020,271.327 160.450,270.401 163.200 C 269.475 165.950,268.311 169.100,267.814 170.200 C 267.317 171.300,266.781 172.650,266.624 173.200 C 266.236 174.551,264.422 179.514,263.772 181.000 C 263.065 182.615,260.939 188.355,260.586 189.600 C 260.430 190.150,259.694 191.909,258.951 193.509 C 258.208 195.109,257.600 196.559,257.600 196.731 C 257.600 197.074,255.106 203.433,254.170 205.475 C 253.849 206.177,252.881 208.517,252.019 210.675 C 251.157 212.834,249.900 215.728,249.226 217.106 C 248.552 218.485,248.000 219.793,248.000 220.014 C 248.000 220.438,243.655 229.734,241.557 233.800 C 240.876 235.120,239.599 237.637,238.719 239.394 C 237.840 241.151,236.799 243.041,236.407 243.594 C 236.014 244.147,235.016 245.860,234.189 247.400 C 232.485 250.572,228.938 255.689,225.635 259.741 C 224.406 261.249,223.184 262.875,222.920 263.355 C 221.137 266.591,206.107 278.000,203.627 278.000 C 203.365 278.000,202.188 278.455,201.012 279.012 C 191.012 283.742,172.061 284.396,143.800 280.984 C 139.180 280.426,135.123 279.819,134.784 279.634 C 134.445 279.449,133.185 279.170,131.984 279.013 C 128.606 278.571,117.105 276.819,116.127 276.597 C 115.477 276.449,115.182 276.628,114.972 277.299 C 114.817 277.795,114.290 279.100,113.801 280.200 C 113.313 281.300,112.145 284.450,111.206 287.200 C 110.268 289.950,109.362 292.380,109.193 292.600 C 108.893 292.991,106.468 299.674,105.362 303.156 C 105.055 304.122,104.645 305.112,104.451 305.356 C 104.257 305.600,103.515 307.555,102.803 309.700 C 102.090 311.845,101.368 313.600,101.197 313.600 C 101.026 313.600,100.768 314.095,100.623 314.700 C 100.255 316.232,98.034 322.390,97.413 323.600 C 97.131 324.150,96.130 326.850,95.190 329.600 C 94.249 332.350,93.334 334.790,93.156 335.022 C 92.865 335.401,92.267 337.054,89.548 345.000 C 89.097 346.320,88.582 347.580,88.404 347.800 C 88.226 348.020,87.248 350.630,86.231 353.600 C 85.214 356.570,84.053 359.720,83.650 360.600 C 83.248 361.480,82.239 364.180,81.408 366.600 C 80.577 369.020,79.748 371.190,79.565 371.422 C 79.220 371.858,77.203 377.499,76.139 381.000 C 75.805 382.100,75.307 383.360,75.031 383.800 C 74.756 384.240,73.845 386.580,73.008 389.000 C 72.171 391.420,71.402 393.625,71.300 393.900 C 70.850 395.112,246.650 394.438,248.194 393.222 C 248.417 393.046,249.941 392.775,251.579 392.619 C 257.594 392.047,269.370 389.761,271.099 388.830 C 271.485 388.623,274.050 387.786,276.800 386.970 C 279.550 386.155,283.240 384.815,285.000 383.992 C 286.760 383.169,288.650 382.362,289.200 382.199 C 290.588 381.786,300.650 376.538,302.600 375.209 C 303.480 374.610,305.100 373.622,306.200 373.015 C 313.542 368.960,328.133 356.189,336.380 346.600 C 339.919 342.484,345.940 334.631,346.304 333.656 C 346.438 333.295,347.222 332.007,348.046 330.793 C 352.050 324.891,360.400 308.158,360.400 306.034 C 360.400 305.809,360.854 304.630,361.410 303.416 C 362.312 301.443,364.615 293.695,365.396 290.000 C 365.559 289.230,365.833 288.420,366.005 288.200 C 366.438 287.645,368.250 276.804,368.879 271.000 C 369.545 264.862,369.544 246.023,368.877 240.200 C 368.033 232.823,366.714 225.096,366.011 223.400 C 365.828 222.960,365.278 220.980,364.788 219.000 C 363.651 214.406,361.964 208.718,361.585 208.200 C 361.424 207.980,360.622 206.000,359.804 203.800 C 358.244 199.607,353.097 188.631,352.207 187.600 C 351.923 187.270,351.185 186.010,350.569 184.800 C 349.209 182.131,346.262 177.644,343.213 173.600 C 341.969 171.950,340.847 170.330,340.720 170.000 C 339.564 167.006,317.232 144.800,315.376 144.800 C 315.197 144.800,314.049 144.019,312.825 143.065 C 307.876 139.207,302.887 136.253,293.869 131.838 C 283.018 126.526,283.798 126.753,282.994 128.677 " stroke="none" fill="#f4f4f4" fill-rule="evenodd"></path><path id="path1" d="M152.700 3.897 C 150.995 3.972,149.600 4.183,149.600 4.365 C 149.600 4.547,148.295 4.817,146.700 4.965 C 140.141 5.571,125.538 8.477,125.267 9.230 C 125.193 9.433,124.900 9.600,124.616 9.600 C 123.494 9.600,112.800 13.147,112.400 13.652 C 112.290 13.791,110.132 14.750,107.604 15.784 C 105.076 16.817,102.916 17.805,102.804 17.978 C 102.692 18.151,100.755 19.203,98.501 20.317 C 96.246 21.430,94.126 22.617,93.790 22.953 C 93.453 23.290,92.119 24.129,90.826 24.819 C 89.532 25.508,88.093 26.426,87.629 26.858 C 86.634 27.786,81.699 31.200,81.354 31.200 C 81.222 31.200,80.768 31.641,80.344 32.180 C 79.920 32.719,78.722 33.711,77.682 34.385 C 76.643 35.059,75.291 36.238,74.679 37.005 C 74.067 37.772,73.377 38.400,73.146 38.400 C 72.668 38.400,61.600 49.452,61.600 49.930 C 61.600 50.101,60.783 51.042,59.784 52.020 C 58.785 52.999,57.720 54.250,57.417 54.800 C 57.113 55.350,56.221 56.498,55.433 57.350 C 54.645 58.203,54.000 58.968,54.000 59.049 C 54.000 59.131,53.370 60.075,52.600 61.147 C 51.830 62.219,51.200 63.289,51.200 63.525 C 51.200 63.761,50.851 64.199,50.425 64.498 C 49.999 64.796,48.900 66.381,47.984 68.020 C 47.067 69.659,46.102 71.180,45.838 71.400 C 45.575 71.620,44.402 73.780,43.232 76.200 C 42.062 78.620,40.991 80.690,40.853 80.800 C 40.575 81.020,38.963 84.569,37.584 88.000 C 37.098 89.210,36.582 90.290,36.438 90.400 C 36.132 90.634,34.407 95.713,33.177 100.000 C 32.704 101.650,32.183 103.180,32.021 103.400 C 31.069 104.688,27.604 121.985,27.601 125.467 C 27.601 126.163,27.443 126.793,27.252 126.867 C 25.760 127.438,25.755 160.971,27.247 161.533 C 27.441 161.607,27.600 162.327,27.600 163.133 C 27.600 166.773,31.228 184.864,32.012 185.133 C 32.225 185.207,32.400 185.587,32.400 185.980 C 32.400 187.067,36.015 197.781,36.433 197.933 C 36.635 198.007,36.800 198.237,36.800 198.446 C 36.800 199.189,40.488 207.600,40.814 207.600 C 40.997 207.600,41.271 208.005,41.424 208.500 C 41.984 210.309,45.283 216.609,45.833 216.920 C 46.145 217.096,46.400 217.421,46.400 217.642 C 46.400 218.247,49.452 223.245,50.586 224.496 C 51.133 225.099,51.926 226.271,52.350 227.101 C 52.773 227.931,53.624 229.115,54.241 229.732 C 54.858 230.349,55.731 231.450,56.181 232.178 C 58.119 235.314,75.734 253.600,76.816 253.600 C 77.027 253.600,77.957 254.336,78.884 255.235 C 79.810 256.134,81.205 257.208,81.984 257.621 C 82.763 258.035,83.925 258.919,84.567 259.587 C 85.208 260.254,85.896 260.800,86.095 260.800 C 86.442 260.800,89.989 263.095,90.400 263.586 C 90.894 264.175,95.726 266.801,96.329 266.808 C 96.698 266.812,98.620 267.621,100.600 268.605 C 102.580 269.589,104.444 270.396,104.742 270.397 C 105.594 270.402,112.177 272.468,112.400 272.801 C 112.510 272.965,113.230 273.246,114.000 273.425 L 115.400 273.750 114.200 273.979 C 113.059 274.196,112.915 274.462,111.256 279.404 C 110.297 282.262,109.380 284.690,109.219 284.800 C 109.057 284.910,107.978 287.790,106.820 291.200 C 105.662 294.610,104.589 297.490,104.434 297.600 C 104.279 297.710,103.284 300.410,102.222 303.600 C 101.159 306.790,100.161 309.490,100.002 309.600 C 99.844 309.710,98.855 312.320,97.806 315.400 C 96.756 318.480,95.761 321.090,95.595 321.200 C 95.429 321.310,94.832 322.840,94.268 324.600 C 92.454 330.260,91.047 334.195,90.762 334.400 C 90.610 334.510,89.629 337.120,88.583 340.200 C 87.538 343.280,86.557 345.890,86.404 346.000 C 86.251 346.110,85.283 348.707,84.253 351.772 C 83.222 354.836,82.225 357.536,82.036 357.772 C 81.848 358.007,80.741 360.990,79.576 364.400 C 78.410 367.810,77.330 370.690,77.175 370.800 C 77.020 370.910,76.022 373.610,74.957 376.800 C 73.892 379.990,72.879 382.702,72.705 382.827 C 72.177 383.206,68.361 394.932,68.485 395.795 C 68.687 397.204,248.800 396.951,248.800 395.541 C 248.800 395.354,249.475 395.199,250.300 395.197 C 254.101 395.191,270.314 392.216,272.906 391.049 C 273.618 390.729,276.090 389.901,278.400 389.209 C 283.889 387.565,286.000 386.770,286.000 386.346 C 286.000 386.156,286.265 386.000,286.589 386.000 C 287.778 386.000,302.701 378.720,304.013 377.500 C 304.428 377.115,304.849 376.800,304.950 376.800 C 305.426 376.800,311.176 373.184,312.181 372.252 C 312.806 371.674,313.490 371.200,313.701 371.200 C 314.058 371.200,317.152 368.945,317.600 368.359 C 317.710 368.215,318.700 367.414,319.800 366.579 C 327.154 360.999,344.400 342.972,344.400 340.865 C 344.400 340.634,344.715 340.210,345.100 339.923 C 345.813 339.390,348.000 336.620,348.000 336.249 C 348.000 336.137,349.260 334.109,350.800 331.744 C 352.340 329.378,353.600 327.208,353.600 326.921 C 353.600 326.634,353.961 326.039,354.402 325.598 C 354.843 325.157,356.032 322.952,357.044 320.698 C 358.057 318.444,359.039 316.503,359.228 316.385 C 359.591 316.158,362.400 309.422,362.400 308.779 C 362.400 308.572,362.932 307.277,363.582 305.901 C 364.668 303.602,368.000 292.401,368.000 291.049 C 368.000 290.729,368.149 290.407,368.331 290.333 C 368.736 290.170,370.158 282.971,370.965 277.000 C 373.093 261.254,372.732 243.644,369.965 228.200 C 369.492 225.560,369.012 222.860,368.897 222.200 C 368.783 221.540,368.556 220.910,368.393 220.800 C 368.230 220.690,367.699 218.980,367.213 217.000 C 366.041 212.225,364.024 205.683,363.675 205.526 C 363.522 205.457,362.965 204.140,362.438 202.600 C 361.474 199.784,355.494 187.074,354.652 186.052 C 354.403 185.750,353.480 184.192,352.600 182.588 C 351.720 180.985,350.689 179.252,350.309 178.737 C 348.559 176.362,346.000 172.399,346.000 172.060 C 346.000 171.854,345.750 171.590,345.445 171.473 C 345.140 171.356,344.133 170.089,343.208 168.658 C 342.283 167.228,341.280 165.963,340.980 165.848 C 340.680 165.732,339.958 164.884,339.376 163.962 C 338.034 161.837,324.783 148.577,322.280 146.855 C 321.246 146.144,320.400 145.417,320.400 145.239 C 320.400 144.934,319.383 144.195,311.800 138.986 C 310.040 137.777,308.330 136.539,308.000 136.235 C 307.305 135.594,300.645 131.932,298.000 130.736 C 297.010 130.288,294.940 129.358,293.400 128.668 C 291.860 127.979,290.390 127.215,290.134 126.970 C 289.878 126.725,289.068 126.300,288.334 126.025 C 285.374 124.916,285.549 125.216,286.572 123.000 C 287.080 121.900,288.262 118.750,289.198 116.000 C 290.134 113.250,291.014 110.910,291.153 110.800 C 291.416 110.592,292.499 107.650,294.318 102.200 C 294.906 100.440,295.526 98.899,295.695 98.775 C 295.865 98.651,296.717 96.450,297.589 93.882 C 298.460 91.315,299.566 88.356,300.045 87.307 C 300.524 86.258,301.708 83.066,302.676 80.213 C 303.644 77.359,304.564 74.929,304.721 74.813 C 305.013 74.595,306.035 71.842,307.918 66.200 C 308.506 64.440,309.116 62.905,309.274 62.788 C 309.541 62.592,311.349 57.630,312.592 53.681 C 312.889 52.736,313.294 51.746,313.492 51.481 C 313.939 50.882,315.601 46.456,317.015 42.100 C 317.604 40.285,318.224 38.800,318.394 38.800 C 318.564 38.800,318.885 38.125,319.109 37.300 C 319.776 34.833,322.550 27.015,322.834 26.800 C 323.076 26.616,325.535 19.929,326.217 17.600 C 326.378 17.050,327.001 15.520,327.601 14.200 C 329.223 10.632,330.964 5.004,330.677 4.256 C 330.445 3.652,165.820 3.320,152.700 3.897 M327.210 7.100 C 326.562 9.230,325.585 11.736,325.236 12.165 C 325.042 12.404,324.700 13.230,324.477 14.000 C 323.717 16.620,320.816 24.596,320.258 25.600 C 319.952 26.150,319.025 28.580,318.197 31.000 C 317.369 33.420,316.294 36.300,315.808 37.400 C 315.322 38.500,314.239 41.380,313.402 43.800 C 312.565 46.220,311.660 48.560,311.392 49.000 C 311.124 49.440,310.046 52.320,308.996 55.400 C 307.947 58.480,306.933 61.198,306.744 61.441 C 306.555 61.683,305.600 64.203,304.622 67.041 C 303.644 69.878,302.566 72.756,302.225 73.436 C 301.884 74.115,300.800 76.970,299.815 79.780 C 298.829 82.591,297.857 85.095,297.653 85.345 C 297.450 85.595,297.100 86.430,296.877 87.200 C 296.089 89.919,293.512 96.963,293.008 97.776 C 292.728 98.229,291.727 100.850,290.785 103.600 C 289.843 106.350,288.958 108.690,288.820 108.800 C 288.681 108.910,288.366 109.630,288.119 110.400 C 285.693 117.964,283.468 123.205,282.688 123.192 C 282.420 123.187,277.610 122.547,272.000 121.769 C 247.813 118.414,237.563 117.499,224.600 117.537 C 213.952 117.569,203.595 118.803,200.402 120.421 C 200.071 120.588,198.180 121.320,196.200 122.046 C 187.402 125.275,179.122 131.930,171.376 142.000 C 168.618 145.586,164.800 151.105,164.800 151.506 C 164.800 151.688,163.980 153.167,162.977 154.793 C 161.975 156.419,160.246 159.561,159.136 161.775 C 158.027 163.989,156.986 165.980,156.825 166.200 C 156.663 166.420,155.759 168.400,154.816 170.600 C 153.873 172.800,152.777 175.140,152.382 175.800 C 151.986 176.460,151.403 177.720,151.086 178.600 C 150.146 181.212,147.999 186.427,146.804 189.000 C 146.192 190.320,145.291 192.570,144.802 194.000 C 144.314 195.430,143.683 196.969,143.400 197.420 C 142.907 198.208,140.932 203.497,139.764 207.156 C 139.456 208.122,139.044 209.112,138.849 209.356 C 138.653 209.600,137.726 212.050,136.788 214.800 C 135.850 217.550,134.755 220.520,134.354 221.400 C 133.954 222.280,132.788 225.520,131.764 228.600 C 130.740 231.680,129.767 234.380,129.601 234.600 C 129.434 234.820,128.448 237.610,127.408 240.800 C 126.369 243.990,125.378 246.780,125.207 247.000 C 125.036 247.220,123.943 250.370,122.777 254.000 C 121.612 257.630,120.438 260.960,120.169 261.400 C 119.899 261.840,119.192 263.820,118.597 265.800 C 116.741 271.977,116.663 272.048,113.400 270.566 C 112.740 270.266,110.940 269.637,109.400 269.168 C 106.335 268.235,102.380 266.695,100.778 265.811 C 100.217 265.501,98.687 264.854,97.378 264.372 C 96.070 263.891,93.701 262.620,92.114 261.548 C 90.526 260.477,89.104 259.600,88.954 259.600 C 88.459 259.600,81.125 253.904,76.826 250.179 C 68.957 243.363,56.769 230.002,54.299 225.483 C 53.913 224.777,53.193 223.729,52.699 223.154 C 52.204 222.579,51.454 221.499,51.032 220.754 C 50.610 220.009,49.571 218.347,48.725 217.061 C 46.804 214.142,41.214 203.145,39.748 199.400 C 39.145 197.860,38.508 196.406,38.333 196.168 C 38.158 195.930,37.190 193.140,36.181 189.968 C 35.173 186.796,34.195 183.911,34.007 183.559 C 33.171 181.985,30.007 165.727,30.002 162.980 C 30.001 162.309,29.836 161.589,29.634 161.380 C 28.206 159.895,28.136 128.225,29.560 127.200 C 29.712 127.090,30.050 125.290,30.309 123.200 C 31.196 116.064,32.993 107.707,34.234 104.940 C 34.546 104.246,34.800 103.422,34.800 103.108 C 34.800 102.339,37.838 93.288,38.300 92.681 C 38.501 92.417,38.897 91.570,39.178 90.800 C 40.358 87.579,42.944 81.790,43.260 81.667 C 43.447 81.593,43.600 81.346,43.600 81.116 C 43.600 80.887,44.545 79.004,45.700 76.933 C 46.855 74.861,48.071 72.679,48.403 72.083 C 50.379 68.532,52.919 64.846,56.900 59.754 C 58.165 58.136,59.200 56.705,59.200 56.574 C 59.200 55.122,76.519 37.856,80.438 35.400 C 80.789 35.180,82.859 33.650,85.038 32.000 C 89.462 28.651,93.427 26.000,94.013 26.000 C 94.226 26.000,94.400 25.820,94.400 25.600 C 94.400 25.380,94.655 25.200,94.967 25.200 C 95.278 25.200,95.593 25.065,95.667 24.900 C 95.740 24.735,97.067 23.954,98.615 23.165 C 100.164 22.375,101.919 21.409,102.516 21.018 C 105.426 19.111,123.268 12.005,125.163 11.998 C 125.513 11.996,126.326 11.721,126.969 11.385 C 129.428 10.103,142.945 7.571,153.400 6.434 C 154.940 6.266,194.752 6.100,241.872 6.065 L 327.544 6.000 327.210 7.100 M238.800 120.422 C 246.254 120.889,260.920 122.443,261.200 122.796 C 261.310 122.935,265.682 123.561,270.916 124.188 C 276.149 124.814,280.535 125.494,280.661 125.699 C 280.903 126.090,277.643 136.454,277.170 136.800 C 277.019 136.910,276.033 139.610,274.979 142.800 C 273.924 145.990,272.931 148.690,272.772 148.800 C 272.614 148.910,271.542 151.880,270.390 155.400 C 269.239 158.920,268.170 161.890,268.015 162.000 C 267.860 162.110,266.848 164.810,265.768 168.000 C 264.687 171.190,263.658 173.906,263.481 174.036 C 263.305 174.166,262.911 175.066,262.606 176.036 C 261.345 180.044,259.542 184.991,259.269 185.188 C 259.108 185.305,258.410 187.020,257.717 189.000 C 255.330 195.820,254.722 197.401,254.409 197.600 C 254.236 197.710,253.815 198.610,253.473 199.600 C 251.591 205.058,250.331 208.215,249.988 208.333 C 249.774 208.407,249.600 208.638,249.600 208.847 C 249.600 209.383,245.955 218.557,245.646 218.800 C 245.506 218.910,245.006 219.900,244.535 221.000 C 244.063 222.100,243.101 224.350,242.397 226.000 C 241.693 227.650,240.977 229.090,240.807 229.200 C 240.637 229.310,239.638 231.290,238.585 233.600 C 237.533 235.910,236.552 237.890,236.405 238.000 C 236.258 238.110,235.252 239.907,234.169 241.993 C 233.086 244.079,231.943 246.095,231.628 246.473 C 231.313 246.852,230.503 248.158,229.828 249.377 C 229.153 250.595,228.202 252.089,227.715 252.696 C 226.430 254.300,223.200 258.776,223.200 258.954 C 223.200 259.038,222.525 259.813,221.700 260.678 C 220.875 261.543,219.655 262.869,218.989 263.625 C 216.298 266.679,211.489 270.585,208.700 271.984 C 208.095 272.287,207.600 272.693,207.600 272.886 C 207.600 273.295,201.095 276.400,200.237 276.400 C 199.918 276.400,199.383 276.675,199.047 277.010 C 197.260 278.797,184.098 280.800,174.143 280.800 C 164.419 280.800,137.915 278.348,135.400 277.215 C 134.960 277.017,131.180 276.380,127.000 275.800 C 118.229 274.583,118.169 274.569,118.699 273.895 C 118.914 273.623,120.043 270.430,121.208 266.800 C 122.374 263.170,123.546 259.840,123.813 259.400 C 124.080 258.960,125.064 256.170,125.999 253.200 C 126.934 250.230,127.840 247.620,128.013 247.400 C 128.186 247.180,129.086 244.660,130.014 241.800 C 130.941 238.940,131.961 236.029,132.281 235.330 C 132.601 234.632,133.804 231.296,134.954 227.917 C 136.104 224.538,137.203 221.518,137.396 221.206 C 137.590 220.893,138.543 218.289,139.516 215.419 C 140.488 212.548,141.442 210.005,141.635 209.767 C 141.828 209.530,142.871 206.830,143.953 203.767 C 145.035 200.705,146.275 197.480,146.709 196.600 C 147.143 195.720,147.906 193.830,148.404 192.400 C 148.902 190.970,149.746 188.900,150.280 187.800 C 150.815 186.700,151.890 184.180,152.670 182.200 C 154.911 176.512,163.478 158.742,164.113 158.462 C 164.286 158.386,164.981 157.216,165.660 155.862 C 166.338 154.508,167.952 151.833,169.246 149.917 C 170.541 148.002,171.600 146.291,171.600 146.115 C 171.600 145.939,172.310 145.042,173.178 144.120 C 174.046 143.199,175.027 141.921,175.358 141.282 C 175.688 140.642,176.566 139.586,177.308 138.934 C 178.050 138.283,178.764 137.471,178.895 137.129 C 179.026 136.788,179.995 135.809,181.048 134.954 C 182.102 134.099,183.769 132.635,184.753 131.700 C 185.738 130.765,186.714 130.000,186.924 130.000 C 187.133 130.000,188.170 129.378,189.228 128.618 C 191.571 126.935,194.926 125.246,198.400 124.001 C 199.830 123.489,201.180 122.947,201.400 122.797 C 201.843 122.495,204.339 121.850,207.400 121.247 C 214.984 119.752,224.212 119.510,238.800 120.422 M293.869 131.838 C 302.887 136.253,307.876 139.207,312.825 143.065 C 314.049 144.019,315.197 144.800,315.376 144.800 C 317.232 144.800,339.564 167.006,340.720 170.000 C 340.847 170.330,341.969 171.950,343.213 173.600 C 346.262 177.644,349.209 182.131,350.569 184.800 C 351.185 186.010,351.923 187.270,352.207 187.600 C 353.097 188.631,358.244 199.607,359.804 203.800 C 360.622 206.000,361.424 207.980,361.585 208.200 C 361.964 208.718,363.651 214.406,364.788 219.000 C 365.278 220.980,365.828 222.960,366.011 223.400 C 366.714 225.096,368.033 232.823,368.877 240.200 C 369.544 246.023,369.545 264.862,368.879 271.000 C 368.250 276.804,366.438 287.645,366.005 288.200 C 365.833 288.420,365.559 289.230,365.396 290.000 C 364.615 293.695,362.312 301.443,361.410 303.416 C 360.854 304.630,360.400 305.809,360.400 306.034 C 360.400 308.158,352.050 324.891,348.046 330.793 C 347.222 332.007,346.438 333.295,346.304 333.656 C 345.940 334.631,339.919 342.484,336.380 346.600 C 328.133 356.189,313.542 368.960,306.200 373.015 C 305.100 373.622,303.480 374.610,302.600 375.209 C 300.650 376.538,290.588 381.786,289.200 382.199 C 288.650 382.362,286.760 383.169,285.000 383.992 C 283.240 384.815,279.550 386.155,276.800 386.970 C 274.050 387.786,271.485 388.623,271.099 388.830 C 269.370 389.761,257.594 392.047,251.579 392.619 C 249.941 392.775,248.417 393.046,248.194 393.222 C 246.650 394.438,70.850 395.112,71.300 393.900 C 71.402 393.625,72.171 391.420,73.008 389.000 C 73.845 386.580,74.756 384.240,75.031 383.800 C 75.307 383.360,75.805 382.100,76.139 381.000 C 77.203 377.499,79.220 371.858,79.565 371.422 C 79.748 371.190,80.577 369.020,81.408 366.600 C 82.239 364.180,83.248 361.480,83.650 360.600 C 84.053 359.720,85.214 356.570,86.231 353.600 C 87.248 350.630,88.226 348.020,88.404 347.800 C 88.582 347.580,89.097 346.320,89.548 345.000 C 92.267 337.054,92.865 335.401,93.156 335.022 C 93.334 334.790,94.249 332.350,95.190 329.600 C 96.130 326.850,97.131 324.150,97.413 323.600 C 98.034 322.390,100.255 316.232,100.623 314.700 C 100.768 314.095,101.026 313.600,101.197 313.600 C 101.368 313.600,102.090 311.845,102.803 309.700 C 103.515 307.555,104.257 305.600,104.451 305.356 C 104.645 305.112,105.055 304.122,105.362 303.156 C 106.468 299.674,108.893 292.991,109.193 292.600 C 109.362 292.380,110.268 289.950,111.206 287.200 C 112.145 284.450,113.313 281.300,113.801 280.200 C 114.290 279.100,114.817 277.795,114.972 277.299 C 115.182 276.628,115.477 276.449,116.127 276.597 C 117.105 276.819,128.606 278.571,131.984 279.013 C 133.185 279.170,134.445 279.449,134.784 279.634 C 135.123 279.819,139.180 280.426,143.800 280.984 C 172.061 284.396,191.012 283.742,201.012 279.012 C 202.188 278.455,203.365 278.000,203.627 278.000 C 206.107 278.000,221.137 266.591,222.920 263.355 C 223.184 262.875,224.406 261.249,225.635 259.741 C 228.938 255.689,232.485 250.572,234.189 247.400 C 235.016 245.860,236.014 244.147,236.407 243.594 C 236.799 243.041,237.840 241.151,238.719 239.394 C 239.599 237.637,240.876 235.120,241.557 233.800 C 243.655 229.734,248.000 220.438,248.000 220.014 C 248.000 219.793,248.552 218.485,249.226 217.106 C 249.900 215.728,251.157 212.834,252.019 210.675 C 252.881 208.517,253.849 206.177,254.170 205.475 C 255.106 203.433,257.600 197.074,257.600 196.731 C 257.600 196.559,258.208 195.109,258.951 193.509 C 259.694 191.909,260.430 190.150,260.586 189.600 C 260.939 188.355,263.065 182.615,263.772 181.000 C 264.422 179.514,266.236 174.551,266.624 173.200 C 266.781 172.650,267.317 171.300,267.814 170.200 C 268.311 169.100,269.475 165.950,270.401 163.200 C 271.327 160.450,272.226 158.020,272.399 157.800 C 272.572 157.580,273.653 154.610,274.800 151.200 C 275.947 147.790,277.024 144.820,277.193 144.600 C 277.362 144.380,278.349 141.680,279.387 138.600 C 280.425 135.520,281.413 132.820,281.582 132.600 C 281.751 132.380,281.999 131.739,282.133 131.177 C 282.553 129.415,283.594 127.200,284.003 127.200 C 284.218 127.200,288.658 129.287,293.869 131.838 " stroke="none" fill="#040404" fill-rule="evenodd"></path></g></svg>