<svg id="svg" version="1.1" xmlns="http://www.w3.org/2000/svg" xmlns:xlink="http://www.w3.org/1999/xlink" width="400" height="400" viewBox="0, 0, 400,400"><g id="svgg">
<path id="path0" d="M254.857 57.114 C 254.175 57.342,251.068 63.639,251.470 63.978 C 251.652 64.130,254.050 64.850,256.800 65.577 C 278.749 71.382,298.542 80.394,314.490 91.845 C 323.432 98.265,334.918 108.089,334.716 109.143 C 334.470 110.418,333.168 109.988,325.182 105.991 C 293.646 90.208,267.989 81.473,243.000 78.010 C 225.441 75.578,217.739 75.047,200.000 75.047 C 182.261 75.047,174.559 75.578,157.000 78.010 C 132.024 81.471,106.351 90.210,74.862 105.969 C 66.453 110.177,65.739 110.429,65.318 109.330 C 65.002 108.508,67.332 106.329,75.924 99.410 C 92.827 85.797,109.664 76.416,129.400 69.613 C 133.500 68.200,136.530 67.313,147.300 64.377 C 149.123 63.880,149.135 64.248,147.168 60.336 L 145.536 57.090 142.364 57.355 C 119.708 59.244,88.821 71.006,64.331 87.070 C 56.678 92.090,56.464 92.318,51.894 100.358 C 29.399 139.936,12.121 199.372,5.428 260.200 C 4.555 268.137,4.103 273.191,3.011 287.238 L 2.806 289.875 6.621 293.919 C 27.876 316.451,57.490 332.389,91.400 339.549 C 100.778 341.529,117.338 343.656,118.377 343.014 C 118.898 342.692,132.071 325.138,131.911 324.978 C 131.839 324.906,128.994 323.735,125.590 322.375 C 99.757 312.062,75.652 295.499,58.268 276.117 C 54.146 271.521,56.244 271.276,62.419 275.633 C 101.154 302.965,145.576 315.999,200.000 315.999 C 254.424 315.999,298.846 302.965,337.581 275.633 C 349.820 266.997,342.154 277.374,326.000 291.309 C 311.037 304.217,293.614 314.708,274.410 322.375 C 271.006 323.735,268.161 324.906,268.089 324.978 C 267.929 325.138,281.102 342.692,281.623 343.014 C 282.662 343.656,299.222 341.529,308.600 339.549 C 342.510 332.389,372.124 316.451,393.379 293.919 L 397.194 289.875 396.989 287.238 C 395.897 273.191,395.445 268.137,394.572 260.200 C 387.565 196.523,367.896 131.197,344.696 94.547 C 339.853 86.897,305.881 69.143,283.235 62.427 C 273.675 59.592,256.865 56.445,254.857 57.114 M147.962 181.816 C 171.197 187.293,181.691 219.061,167.277 240.287 C 151.257 263.877,118.803 257.669,110.626 229.450 C 102.922 202.865,123.871 176.137,147.962 181.816 M265.174 181.850 C 286.651 187.171,297.547 214.615,286.744 236.180 C 274.036 261.548,241.719 260.880,229.763 235.002 C 217.202 207.816,238.847 175.328,265.174 181.850 " stroke="none" fill="#8c9cfb" fill-rule="evenodd"></path>
<path id="path1" d="M139.865 54.268 C 139.718 54.415,137.753 54.765,135.499 55.045 C 129.177 55.830,127.864 56.036,127.000 56.377 C 125.611 56.926,122.660 57.666,121.000 57.882 C 120.120 57.996,119.220 58.229,119.000 58.399 C 118.780 58.569,117.976 58.841,117.213 59.005 C 116.450 59.168,115.550 59.441,115.213 59.611 C 114.876 59.781,113.520 60.236,112.200 60.621 C 109.274 61.476,104.453 63.150,103.505 63.641 C 103.123 63.838,102.553 64.000,102.238 64.000 C 101.923 64.000,101.155 64.260,100.532 64.577 C 99.910 64.895,98.140 65.652,96.600 66.261 C 95.060 66.870,93.008 67.781,92.040 68.284 C 91.073 68.788,90.083 69.200,89.840 69.200 C 89.269 69.200,78.311 74.726,76.108 76.125 C 75.177 76.716,74.310 77.200,74.181 77.200 C 74.052 77.200,73.374 77.617,72.673 78.127 C 71.973 78.638,70.635 79.385,69.700 79.788 C 68.765 80.192,68.000 80.674,68.000 80.861 C 68.000 81.047,67.841 81.200,67.646 81.200 C 67.193 81.200,62.244 84.471,62.067 84.887 C 61.993 85.059,61.776 85.200,61.584 85.200 C 59.479 85.200,50.800 93.784,50.800 95.866 C 50.800 96.160,50.647 96.400,50.461 96.400 C 50.274 96.400,49.788 97.165,49.380 98.100 C 48.972 99.035,48.078 100.700,47.394 101.800 C 46.085 103.904,41.826 112.508,38.583 119.600 C 37.527 121.910,36.078 125.061,35.364 126.602 C 34.649 128.142,33.930 129.942,33.765 130.602 C 33.600 131.261,33.039 132.790,32.519 134.000 C 30.375 138.985,29.787 140.493,28.966 143.106 C 28.602 144.264,28.146 145.310,27.952 145.430 C 27.758 145.549,27.600 146.051,27.600 146.544 C 27.600 147.037,27.457 147.611,27.282 147.820 C 27.107 148.029,26.635 149.280,26.233 150.600 C 25.831 151.920,25.274 153.540,24.994 154.200 C 24.158 156.175,22.740 160.516,22.513 161.800 C 22.395 162.460,22.156 163.182,21.980 163.404 C 21.805 163.626,21.304 165.156,20.868 166.804 C 20.432 168.452,19.801 170.610,19.466 171.600 C 19.130 172.590,18.733 174.077,18.582 174.904 C 18.432 175.732,18.150 176.507,17.955 176.628 C 17.760 176.749,17.600 177.304,17.600 177.863 C 17.600 178.422,17.354 179.446,17.053 180.140 C 16.340 181.780,12.743 196.124,12.524 198.200 C 12.431 199.080,12.204 200.160,12.020 200.600 C 11.409 202.064,8.970 213.417,8.411 217.400 C 8.226 218.720,7.892 220.610,7.669 221.600 C 7.446 222.590,7.059 224.840,6.808 226.600 C 6.558 228.360,6.182 230.430,5.973 231.200 C 5.764 231.970,5.413 234.220,5.193 236.200 C 4.973 238.180,4.616 240.880,4.399 242.200 C 3.990 244.693,2.989 252.400,2.399 257.600 C 2.211 259.250,1.857 262.310,1.612 264.400 C 1.366 266.490,1.079 269.460,0.972 271.000 C 0.866 272.540,0.618 276.050,0.422 278.800 C 0.226 281.550,0.059 285.510,0.051 287.600 L 0.036 291.400 2.118 293.790 C 5.421 297.583,15.890 307.600,16.551 307.600 C 16.696 307.600,17.396 308.188,18.107 308.906 C 18.818 309.624,19.850 310.519,20.400 310.894 C 20.950 311.269,22.120 312.117,23.000 312.780 C 25.811 314.896,31.645 318.800,31.995 318.800 C 32.181 318.800,32.393 318.955,32.467 319.143 C 32.577 319.427,37.946 322.796,41.000 324.499 C 41.440 324.744,42.790 325.500,44.000 326.180 C 45.210 326.859,47.550 328.014,49.200 328.745 C 50.850 329.477,53.460 330.668,55.000 331.392 C 58.089 332.845,60.179 333.689,62.600 334.462 C 63.480 334.743,64.555 335.204,64.989 335.487 C 65.423 335.769,66.152 336.000,66.609 336.000 C 67.066 336.000,67.611 336.143,67.820 336.318 C 68.029 336.493,69.280 336.955,70.600 337.346 C 75.338 338.749,77.006 339.317,77.380 339.656 C 77.589 339.845,78.433 340.000,79.256 340.000 C 80.079 340.000,80.846 340.150,80.959 340.334 C 81.073 340.517,82.748 340.983,84.683 341.367 C 86.617 341.752,88.560 342.208,89.000 342.380 C 92.302 343.674,106.516 345.639,114.381 345.889 C 120.205 346.075,120.478 345.976,122.636 342.914 C 123.496 341.694,124.695 340.110,125.300 339.395 C 125.905 338.680,126.400 337.893,126.400 337.647 C 126.400 337.401,126.540 337.200,126.712 337.200 C 126.884 337.200,127.739 336.199,128.612 334.975 C 129.485 333.752,131.145 331.551,132.300 330.086 C 133.455 328.620,134.400 327.112,134.400 326.734 C 134.400 326.356,134.580 325.936,134.800 325.800 C 136.938 324.479,134.138 322.193,127.200 319.596 C 126.430 319.308,125.629 318.921,125.420 318.736 C 125.211 318.551,124.811 318.400,124.531 318.400 C 123.489 318.400,108.007 310.838,103.200 307.980 C 101.770 307.130,100.317 306.292,99.970 306.117 C 97.613 304.929,83.445 295.320,82.811 294.480 C 82.553 294.137,79.171 291.411,77.027 289.818 C 75.187 288.450,75.782 287.906,77.658 289.241 C 80.392 291.188,95.916 298.947,101.200 301.007 C 102.190 301.393,103.567 301.954,104.260 302.254 C 104.954 302.554,105.631 302.800,105.765 302.800 C 105.899 302.800,106.772 303.144,107.704 303.564 C 108.637 303.985,110.390 304.628,111.600 304.993 C 112.810 305.358,114.160 305.811,114.600 306.000 C 115.040 306.189,116.390 306.640,117.600 307.002 C 118.810 307.365,120.340 307.901,121.000 308.192 C 121.660 308.484,123.190 308.944,124.400 309.214 C 125.610 309.485,127.086 309.952,127.680 310.253 C 128.274 310.554,129.140 310.800,129.605 310.800 C 130.070 310.800,131.294 311.054,132.325 311.365 C 135.005 312.171,139.468 313.244,141.800 313.642 C 146.981 314.525,149.851 315.077,150.400 315.295 C 150.730 315.427,151.810 315.645,152.800 315.780 C 153.790 315.916,155.770 316.195,157.200 316.400 C 158.630 316.606,160.709 316.780,161.820 316.787 C 162.931 316.794,164.011 316.967,164.220 317.171 C 164.429 317.375,166.040 317.638,167.800 317.755 C 169.560 317.872,173.070 318.140,175.600 318.350 C 181.569 318.847,218.431 318.847,224.400 318.350 C 226.930 318.140,230.440 317.872,232.200 317.755 C 233.960 317.638,235.571 317.375,235.780 317.171 C 235.989 316.967,237.069 316.794,238.180 316.787 C 239.291 316.780,241.370 316.606,242.800 316.400 C 244.230 316.195,246.210 315.916,247.200 315.780 C 248.190 315.645,249.270 315.427,249.600 315.295 C 250.149 315.077,253.019 314.525,258.200 313.642 C 260.532 313.244,264.995 312.171,267.675 311.365 C 268.706 311.054,269.930 310.800,270.395 310.800 C 270.860 310.800,271.726 310.554,272.320 310.253 C 272.914 309.952,274.390 309.485,275.600 309.214 C 276.810 308.944,278.340 308.484,279.000 308.192 C 279.660 307.901,281.190 307.365,282.400 307.002 C 283.610 306.640,284.960 306.189,285.400 306.000 C 285.840 305.811,287.190 305.358,288.400 304.993 C 289.610 304.628,291.363 303.985,292.296 303.564 C 293.228 303.144,294.101 302.800,294.235 302.800 C 294.369 302.800,295.046 302.554,295.740 302.254 C 296.433 301.954,297.810 301.393,298.800 301.007 C 304.084 298.947,319.608 291.188,322.342 289.241 C 324.218 287.906,324.813 288.450,322.973 289.818 C 320.829 291.411,317.447 294.137,317.189 294.480 C 316.555 295.320,302.387 304.929,300.030 306.117 C 299.683 306.292,298.230 307.130,296.800 307.980 C 291.993 310.838,276.511 318.400,275.469 318.400 C 275.189 318.400,274.789 318.551,274.580 318.736 C 274.371 318.921,273.570 319.308,272.800 319.596 C 265.862 322.193,263.062 324.479,265.200 325.800 C 265.420 325.936,265.600 326.356,265.600 326.734 C 265.600 327.112,266.545 328.620,267.700 330.086 C 268.855 331.551,270.515 333.752,271.388 334.975 C 272.261 336.199,273.116 337.200,273.288 337.200 C 273.460 337.200,273.600 337.401,273.600 337.647 C 273.600 337.893,274.095 338.680,274.700 339.395 C 275.305 340.110,276.504 341.694,277.364 342.914 C 279.522 345.976,279.795 346.075,285.619 345.889 C 293.484 345.639,307.698 343.674,311.000 342.380 C 311.440 342.208,313.383 341.752,315.317 341.367 C 317.252 340.983,318.927 340.517,319.041 340.334 C 319.154 340.150,319.921 340.000,320.744 340.000 C 321.567 340.000,322.411 339.845,322.620 339.656 C 322.994 339.317,324.662 338.749,329.400 337.346 C 330.720 336.955,331.971 336.493,332.180 336.318 C 332.389 336.143,332.934 336.000,333.391 336.000 C 333.848 336.000,334.577 335.769,335.011 335.487 C 335.445 335.204,336.520 334.743,337.400 334.462 C 339.821 333.689,341.911 332.845,345.000 331.392 C 346.540 330.668,349.150 329.477,350.800 328.745 C 352.450 328.014,354.790 326.859,356.000 326.180 C 357.210 325.500,358.560 324.744,359.000 324.499 C 362.054 322.796,367.423 319.427,367.533 319.143 C 367.607 318.955,367.819 318.800,368.005 318.800 C 368.355 318.800,374.189 314.896,377.000 312.780 C 377.880 312.117,379.050 311.269,379.600 310.894 C 380.150 310.519,381.182 309.624,381.893 308.906 C 382.604 308.188,383.304 307.600,383.449 307.600 C 384.088 307.600,394.420 297.739,397.918 293.790 L 400.035 291.400 399.809 283.600 C 399.684 279.310,399.413 274.990,399.205 274.000 C 398.997 273.010,398.634 269.590,398.397 266.400 C 398.161 263.210,397.808 259.250,397.614 257.600 C 396.906 251.588,395.985 244.543,395.601 242.200 C 395.384 240.880,395.027 238.180,394.807 236.200 C 394.587 234.220,394.236 231.970,394.027 231.200 C 393.818 230.430,393.442 228.360,393.192 226.600 C 392.941 224.840,392.554 222.590,392.331 221.600 C 392.108 220.610,391.774 218.720,391.589 217.400 C 390.981 213.065,388.533 201.795,387.963 200.705 C 387.764 200.323,387.600 199.410,387.600 198.677 C 387.600 197.943,387.351 196.545,387.047 195.571 C 386.224 192.935,385.743 191.084,384.563 186.000 C 383.976 183.470,383.249 180.833,382.948 180.140 C 382.646 179.446,382.400 178.422,382.400 177.863 C 382.400 177.304,382.240 176.749,382.045 176.628 C 381.850 176.507,381.568 175.732,381.418 174.904 C 381.267 174.077,380.870 172.590,380.534 171.600 C 380.199 170.610,379.568 168.452,379.132 166.804 C 378.696 165.156,378.195 163.626,378.020 163.404 C 377.844 163.182,377.605 162.460,377.487 161.800 C 377.260 160.516,375.842 156.175,375.006 154.200 C 374.726 153.540,374.169 151.920,373.767 150.600 C 373.365 149.280,372.893 148.029,372.718 147.820 C 372.543 147.611,372.400 147.037,372.400 146.544 C 372.400 146.051,372.242 145.549,372.048 145.430 C 371.854 145.310,371.398 144.264,371.034 143.106 C 370.213 140.493,369.625 138.985,367.481 134.000 C 366.961 132.790,366.400 131.261,366.235 130.602 C 366.070 129.942,365.351 128.142,364.636 126.602 C 363.922 125.061,362.473 121.910,361.417 119.600 C 358.174 112.508,353.915 103.904,352.606 101.800 C 351.922 100.700,351.028 99.035,350.620 98.100 C 350.212 97.165,349.726 96.400,349.539 96.400 C 349.353 96.400,349.200 96.160,349.200 95.866 C 349.200 95.312,346.253 90.912,345.408 90.204 C 343.471 88.583,338.770 85.200,338.455 85.200 C 338.241 85.200,338.007 85.050,337.933 84.867 C 337.730 84.359,333.309 81.533,329.400 79.412 C 328.300 78.816,327.130 78.110,326.800 77.844 C 326.470 77.578,325.480 77.010,324.600 76.582 C 323.720 76.154,322.516 75.483,321.924 75.091 C 320.434 74.106,310.706 69.200,310.242 69.200 C 310.034 69.200,308.769 68.677,307.432 68.038 C 302.811 65.829,298.359 64.000,297.604 64.000 C 297.188 64.000,296.746 63.837,296.623 63.637 C 296.499 63.437,294.644 62.697,292.499 61.993 C 290.355 61.289,288.420 60.572,288.200 60.400 C 287.980 60.228,286.360 59.776,284.600 59.396 C 282.840 59.016,281.229 58.546,281.020 58.352 C 280.811 58.158,280.214 58.000,279.694 58.000 C 279.173 58.000,278.402 57.815,277.979 57.589 C 277.263 57.206,276.166 56.929,271.600 55.979 C 267.930 55.216,260.888 54.307,257.265 54.128 L 253.530 53.943 251.965 55.589 C 251.104 56.493,250.400 57.462,250.400 57.742 C 250.400 58.022,249.950 59.183,249.400 60.323 C 248.036 63.151,248.018 65.875,249.361 66.385 C 249.890 66.586,250.440 66.942,250.585 67.175 C 250.729 67.409,251.280 67.600,251.810 67.600 C 252.340 67.600,253.364 67.848,254.086 68.152 C 256.034 68.970,258.161 69.600,258.979 69.600 C 260.683 69.600,280.316 76.543,284.537 78.638 C 285.602 79.167,286.650 79.600,286.866 79.600 C 287.391 79.600,295.778 83.792,297.130 84.731 C 297.718 85.139,298.740 85.747,299.400 86.082 C 302.027 87.414,304.729 89.055,307.301 90.882 C 308.787 91.937,310.084 92.800,310.182 92.800 C 310.555 92.800,315.447 96.368,316.169 97.166 C 316.584 97.625,317.196 98.000,317.529 98.000 C 317.861 98.000,318.020 98.113,317.882 98.251 C 317.744 98.389,316.816 98.119,315.820 97.651 C 314.824 97.183,313.899 96.800,313.765 96.800 C 313.631 96.800,312.054 96.104,310.261 95.253 C 308.467 94.403,305.830 93.209,304.400 92.600 C 302.970 91.992,300.866 91.068,299.725 90.547 C 298.584 90.026,297.531 89.600,297.386 89.600 C 297.240 89.600,296.554 89.347,295.860 89.038 C 295.167 88.728,293.700 88.157,292.600 87.769 C 291.500 87.380,290.420 86.945,290.200 86.801 C 289.980 86.658,288.630 86.207,287.200 85.800 C 285.770 85.393,284.420 84.931,284.200 84.773 C 283.980 84.615,282.630 84.169,281.200 83.780 C 279.770 83.392,278.413 82.932,278.184 82.758 C 277.956 82.584,277.056 82.262,276.184 82.042 C 271.346 80.823,268.156 79.875,267.820 79.559 C 267.611 79.361,266.612 79.200,265.600 79.200 C 264.588 79.200,263.570 79.010,263.337 78.777 C 262.781 78.221,258.597 77.232,256.724 77.214 C 255.912 77.206,255.136 77.020,255.000 76.800 C 254.864 76.580,254.178 76.399,253.476 76.398 C 252.774 76.397,251.570 76.223,250.800 76.012 C 250.030 75.801,248.050 75.435,246.400 75.200 C 244.750 74.965,242.140 74.594,240.600 74.375 C 228.062 72.592,219.051 72.083,200.000 72.083 C 180.949 72.083,171.938 72.592,159.400 74.375 C 157.860 74.594,155.250 74.965,153.600 75.200 C 151.950 75.435,149.970 75.801,149.200 76.012 C 148.430 76.223,147.226 76.397,146.524 76.398 C 145.822 76.399,145.136 76.580,145.000 76.800 C 144.864 77.020,144.088 77.206,143.276 77.214 C 141.403 77.232,137.219 78.221,136.663 78.777 C 136.430 79.010,135.412 79.200,134.400 79.200 C 133.388 79.200,132.389 79.361,132.180 79.559 C 131.844 79.875,128.654 80.823,123.816 82.042 C 122.944 82.262,122.044 82.584,121.816 82.758 C 121.587 82.932,120.230 83.392,118.800 83.780 C 117.370 84.169,116.020 84.615,115.800 84.773 C 115.580 84.931,114.230 85.393,112.800 85.800 C 111.370 86.207,110.020 86.658,109.800 86.801 C 109.580 86.945,108.500 87.380,107.400 87.769 C 106.300 88.157,104.833 88.728,104.140 89.038 C 103.446 89.347,102.760 89.600,102.614 89.600 C 102.469 89.600,101.416 90.026,100.275 90.547 C 99.134 91.068,97.030 91.992,95.600 92.600 C 94.170 93.209,91.533 94.403,89.739 95.253 C 87.946 96.104,86.369 96.800,86.235 96.800 C 86.101 96.800,85.176 97.183,84.180 97.651 C 83.184 98.119,82.256 98.389,82.118 98.251 C 81.980 98.113,82.084 98.000,82.350 98.000 C 82.616 98.000,83.771 97.309,84.917 96.465 C 90.094 92.650,99.354 86.760,104.200 84.201 C 105.520 83.503,107.140 82.648,107.800 82.301 C 109.552 81.378,117.015 77.893,119.800 76.698 C 121.120 76.131,122.830 75.396,123.600 75.065 C 124.370 74.733,126.800 73.896,129.000 73.205 C 131.200 72.513,133.541 71.713,134.202 71.427 C 134.862 71.141,136.032 70.774,136.802 70.613 C 137.571 70.451,139.280 70.000,140.600 69.610 C 141.920 69.221,144.350 68.583,146.000 68.193 C 147.650 67.803,149.270 67.268,149.600 67.003 C 149.930 66.738,150.515 66.410,150.900 66.273 C 151.974 65.893,151.820 62.853,150.600 60.323 C 150.050 59.183,149.600 58.022,149.600 57.742 C 149.600 57.462,148.908 56.506,148.062 55.617 L 146.524 54.000 143.329 54.000 C 141.571 54.000,140.013 54.121,139.865 54.268 M147.788 59.500 C 150.665 64.996,151.013 64.496,142.832 66.620 C 116.089 73.562,94.845 84.716,72.100 103.756 C 64.444 110.165,64.434 110.165,77.800 103.489 C 110.678 87.066,140.622 77.941,170.000 75.394 C 171.650 75.251,173.630 75.059,174.400 74.967 C 177.812 74.562,192.512 74.014,200.000 74.014 C 207.488 74.014,222.188 74.562,225.600 74.967 C 226.370 75.059,228.350 75.251,230.000 75.394 C 259.378 77.941,289.322 87.066,322.200 103.489 C 335.435 110.100,335.418 110.098,328.500 104.179 C 306.415 85.285,288.129 75.577,258.573 67.055 C 255.918 66.290,253.089 65.540,252.287 65.390 C 249.731 64.910,249.701 64.456,251.933 60.112 L 253.944 56.200 257.072 56.310 C 278.711 57.073,315.638 71.652,340.424 89.218 C 345.963 93.144,349.888 99.846,361.376 125.000 C 362.481 127.420,367.927 141.101,369.337 145.000 C 372.853 154.721,374.167 158.583,376.141 165.000 C 385.522 195.502,392.585 230.514,395.789 262.400 C 396.132 265.810,396.585 270.310,396.795 272.400 C 397.005 274.490,397.277 278.180,397.399 280.600 C 397.520 283.020,397.717 286.222,397.836 287.716 L 398.052 290.432 392.526 296.072 C 365.858 323.288,324.814 341.633,285.632 343.847 L 280.980 344.110 273.890 334.625 C 269.991 329.408,266.800 324.970,266.800 324.763 C 266.800 324.333,267.685 323.931,273.800 321.582 C 296.547 312.842,316.528 299.765,334.986 281.536 C 342.952 273.668,343.582 272.560,337.728 276.707 C 299.442 303.833,254.610 316.924,200.000 316.924 C 145.390 316.924,100.558 303.833,62.272 276.707 C 56.418 272.560,57.048 273.668,65.014 281.536 C 83.472 299.765,103.453 312.842,126.200 321.582 C 132.315 323.931,133.200 324.333,133.200 324.763 C 133.200 324.970,130.009 329.408,126.110 334.625 L 119.020 344.110 114.368 343.847 C 84.437 342.155,49.333 329.486,25.272 311.692 C 15.661 304.585,1.314 290.792,1.745 289.075 C 1.868 288.587,2.154 285.670,2.381 282.594 C 5.483 240.565,12.596 201.624,23.859 165.000 C 25.833 158.583,27.147 154.721,30.663 145.000 C 32.073 141.101,37.519 127.420,38.624 125.000 C 45.659 109.596,50.281 100.579,54.604 93.821 C 56.990 90.091,70.077 81.622,84.909 74.210 C 101.649 65.844,118.161 60.291,134.800 57.431 C 146.430 55.431,145.588 55.297,147.788 59.500 M136.800 182.377 C 112.016 187.024,101.308 221.550,118.247 242.200 C 138.099 266.402,172.563 251.047,172.563 218.000 C 172.563 195.821,155.538 178.863,136.800 182.377 M254.600 182.254 C 229.377 186.231,218.319 220.925,235.449 242.340 C 254.743 266.461,289.749 250.770,289.749 218.000 C 289.749 196.259,273.108 179.336,254.600 182.254 M145.800 184.691 C 154.992 186.295,162.754 192.742,167.151 202.425 C 167.894 204.061,168.642 205.687,168.815 206.037 C 170.435 209.331,171.128 222.667,169.836 225.687 C 169.486 226.505,169.200 227.632,169.200 228.192 C 169.200 228.751,168.861 229.972,168.447 230.904 C 168.033 231.837,167.475 233.176,167.207 233.880 C 166.939 234.584,165.928 236.366,164.960 237.839 C 163.992 239.313,163.200 240.601,163.200 240.701 C 163.200 242.681,151.555 250.400,148.567 250.400 C 148.123 250.400,147.543 250.617,147.278 250.882 C 146.028 252.132,136.319 251.631,132.800 250.136 C 127.329 247.810,126.360 247.164,122.400 243.198 C 104.804 225.579,111.057 193.194,133.516 185.628 C 134.868 185.173,136.475 184.787,137.087 184.772 C 137.699 184.756,138.560 184.582,139.000 184.384 C 139.852 184.000,142.530 184.121,145.800 184.691 M263.000 184.749 C 287.647 189.338,296.398 224.375,277.600 243.198 C 273.640 247.164,272.671 247.810,267.200 250.136 C 263.681 251.631,253.972 252.132,252.722 250.882 C 252.457 250.617,251.877 250.400,251.433 250.400 C 248.445 250.400,236.800 242.681,236.800 240.701 C 236.800 240.601,236.008 239.313,235.040 237.839 C 234.072 236.366,233.061 234.584,232.793 233.880 C 232.525 233.176,231.967 231.837,231.553 230.904 C 231.139 229.972,230.800 228.751,230.800 228.192 C 230.800 227.632,230.514 226.505,230.164 225.687 C 228.872 222.667,229.565 209.331,231.185 206.037 C 231.358 205.687,232.106 204.061,232.849 202.425 C 237.156 192.941,246.945 184.828,254.126 184.794 C 254.827 184.791,255.670 184.603,256.000 184.376 C 256.623 183.949,259.538 184.104,263.000 184.749 " stroke="none" fill="#63677f" fill-rule="evenodd"></path>
<path id="path2" d="M136.305 57.483 C 136.802 57.579,137.522 57.575,137.905 57.475 C 138.287 57.375,137.880 57.296,137.000 57.301 C 136.120 57.305,135.807 57.387,136.305 57.483 M262.900 57.476 C 263.285 57.576,263.915 57.576,264.300 57.476 C 264.685 57.375,264.370 57.293,263.600 57.293 C 262.830 57.293,262.515 57.375,262.900 57.476 M272.600 59.200 C 273.040 59.389,273.760 59.538,274.200 59.532 C 274.843 59.523,274.804 59.457,274.000 59.200 C 272.632 58.762,271.581 58.762,272.600 59.200 M114.600 62.400 C 114.096 62.617,114.022 62.744,114.400 62.744 C 114.730 62.744,115.360 62.589,115.800 62.400 C 116.304 62.183,116.378 62.056,116.000 62.056 C 115.670 62.056,115.040 62.211,114.600 62.400 M305.600 70.200 C 306.150 70.514,306.780 70.772,307.000 70.772 C 307.220 70.772,306.950 70.514,306.400 70.200 C 305.850 69.886,305.220 69.628,305.000 69.628 C 304.780 69.628,305.050 69.886,305.600 70.200 M312.000 72.997 C 312.000 73.268,315.249 74.884,315.430 74.703 C 315.514 74.619,314.776 74.159,313.791 73.681 C 312.806 73.202,312.000 72.894,312.000 72.997 M197.900 74.295 C 199.055 74.376,200.945 74.376,202.100 74.295 C 203.255 74.214,202.310 74.148,200.000 74.148 C 197.690 74.148,196.745 74.214,197.900 74.295 M184.100 74.696 C 185.365 74.775,187.435 74.775,188.700 74.696 C 189.965 74.616,188.930 74.551,186.400 74.551 C 183.870 74.551,182.835 74.616,184.100 74.696 M211.300 74.696 C 212.565 74.775,214.635 74.775,215.900 74.696 C 217.165 74.616,216.130 74.551,213.600 74.551 C 211.070 74.551,210.035 74.616,211.300 74.696 M316.000 74.984 C 316.000 75.094,316.720 75.551,317.600 76.000 C 318.480 76.449,319.200 76.726,319.200 76.616 C 319.200 76.506,318.480 76.049,317.600 75.600 C 316.720 75.151,316.000 74.874,316.000 74.984 M172.905 75.487 C 173.514 75.579,174.414 75.577,174.905 75.482 C 175.397 75.387,174.900 75.311,173.800 75.314 C 172.700 75.317,172.297 75.395,172.905 75.487 M225.305 75.487 C 225.914 75.579,226.814 75.577,227.305 75.482 C 227.797 75.387,227.300 75.311,226.200 75.314 C 225.100 75.317,224.697 75.395,225.305 75.487 M169.700 75.876 C 170.085 75.976,170.715 75.976,171.100 75.876 C 171.485 75.775,171.170 75.693,170.400 75.693 C 169.630 75.693,169.315 75.775,169.700 75.876 M228.900 75.876 C 229.285 75.976,229.915 75.976,230.300 75.876 C 230.685 75.775,230.370 75.693,229.600 75.693 C 228.830 75.693,228.515 75.775,228.900 75.876 M161.900 76.682 C 162.395 76.778,163.205 76.778,163.700 76.682 C 164.195 76.587,163.790 76.509,162.800 76.509 C 161.810 76.509,161.405 76.587,161.900 76.682 M236.300 76.682 C 236.795 76.778,237.605 76.778,238.100 76.682 C 238.595 76.587,238.190 76.509,237.200 76.509 C 236.210 76.509,235.805 76.587,236.300 76.682 M288.000 77.400 C 288.550 77.714,289.180 77.972,289.400 77.972 C 289.620 77.972,289.350 77.714,288.800 77.400 C 288.250 77.086,287.620 76.828,287.400 76.828 C 287.180 76.828,287.450 77.086,288.000 77.400 M107.100 79.425 C 105.615 80.187,104.400 80.901,104.400 81.011 C 104.400 81.120,105.660 80.576,107.200 79.800 C 108.740 79.024,110.000 78.302,110.000 78.195 C 110.000 77.927,110.112 77.879,107.100 79.425 M75.900 79.029 C 74.405 79.840,74.496 80.178,76.000 79.400 C 76.660 79.059,77.200 78.694,77.200 78.590 C 77.200 78.332,77.157 78.347,75.900 79.029 M144.000 79.600 C 143.208 79.854,143.167 79.920,143.800 79.920 C 144.240 79.920,145.050 79.776,145.600 79.600 C 146.392 79.346,146.433 79.280,145.800 79.280 C 145.360 79.280,144.550 79.424,144.000 79.600 M254.400 79.600 C 254.950 79.776,255.760 79.920,256.200 79.920 C 256.833 79.920,256.792 79.854,256.000 79.600 C 255.450 79.424,254.640 79.280,254.200 79.280 C 253.567 79.280,253.608 79.346,254.400 79.600 M324.000 79.379 C 324.000 79.489,324.540 79.859,325.200 80.200 C 325.860 80.541,326.400 80.731,326.400 80.621 C 326.400 80.511,325.860 80.141,325.200 79.800 C 324.540 79.459,324.000 79.269,324.000 79.379 M135.400 81.600 C 134.896 81.817,134.822 81.944,135.200 81.944 C 135.530 81.944,136.160 81.789,136.600 81.600 C 137.104 81.383,137.178 81.256,136.800 81.256 C 136.470 81.256,135.840 81.411,135.400 81.600 M263.400 81.600 C 263.840 81.789,264.470 81.944,264.800 81.944 C 265.178 81.944,265.104 81.817,264.600 81.600 C 264.160 81.411,263.530 81.256,263.200 81.256 C 262.822 81.256,262.896 81.383,263.400 81.600 M296.400 81.379 C 296.400 81.489,296.940 81.859,297.600 82.200 C 298.260 82.541,298.800 82.731,298.800 82.621 C 298.800 82.511,298.260 82.141,297.600 81.800 C 296.940 81.459,296.400 81.269,296.400 81.379 M70.100 82.446 C 68.737 83.319,68.295 83.906,69.500 83.243 C 70.418 82.739,71.856 81.627,71.600 81.619 C 71.490 81.616,70.815 81.988,70.100 82.446 M101.100 82.629 C 99.605 83.440,99.696 83.778,101.200 83.000 C 101.860 82.659,102.400 82.294,102.400 82.190 C 102.400 81.932,102.357 81.947,101.100 82.629 M127.800 83.600 C 127.296 83.817,127.222 83.944,127.600 83.944 C 127.930 83.944,128.560 83.789,129.000 83.600 C 129.504 83.383,129.578 83.256,129.200 83.256 C 128.870 83.256,128.240 83.411,127.800 83.600 M271.000 83.600 C 271.440 83.789,272.070 83.944,272.400 83.944 C 272.778 83.944,272.704 83.817,272.200 83.600 C 271.760 83.411,271.130 83.256,270.800 83.256 C 270.422 83.256,270.496 83.383,271.000 83.600 M66.900 84.446 C 65.537 85.319,65.095 85.906,66.300 85.243 C 67.218 84.739,68.656 83.627,68.400 83.619 C 68.290 83.616,67.615 83.988,66.900 84.446 M334.000 85.321 C 334.000 85.412,335.035 86.151,336.300 86.963 C 337.565 87.775,338.108 88.021,337.506 87.510 C 336.318 86.500,334.000 85.053,334.000 85.321 M305.400 86.607 C 305.840 86.966,306.560 87.435,307.000 87.651 L 307.800 88.044 307.000 87.393 C 306.560 87.034,305.840 86.565,305.400 86.349 L 304.600 85.956 305.400 86.607 M90.693 89.014 C 89.872 89.572,89.200 90.115,89.200 90.220 C 89.200 90.325,89.920 89.935,90.800 89.353 C 92.197 88.428,92.670 88.000,92.293 88.000 C 92.234 88.000,91.514 88.456,90.693 89.014 M85.000 93.035 L 83.800 94.066 85.100 93.206 C 85.815 92.733,86.400 92.268,86.400 92.173 C 86.400 91.873,86.231 91.978,85.000 93.035 M317.200 94.533 C 317.200 94.643,317.920 95.303,318.800 96.000 C 319.680 96.697,320.400 97.177,320.400 97.067 C 320.400 96.957,319.680 96.297,318.800 95.600 C 317.920 94.903,317.200 94.423,317.200 94.533 M90.000 97.800 C 89.450 98.114,89.180 98.372,89.400 98.372 C 89.620 98.372,90.250 98.114,90.800 97.800 C 91.350 97.486,91.620 97.228,91.400 97.228 C 91.180 97.228,90.550 97.486,90.000 97.800 M309.200 97.800 C 309.750 98.114,310.380 98.372,310.600 98.372 C 310.820 98.372,310.550 98.114,310.000 97.800 C 309.450 97.486,308.820 97.228,308.600 97.228 C 308.380 97.228,308.650 97.486,309.200 97.800 M320.800 97.349 C 320.800 97.459,322.150 98.652,323.800 100.000 C 325.450 101.348,326.800 102.361,326.800 102.251 C 326.800 102.141,325.450 100.948,323.800 99.600 C 322.150 98.252,320.800 97.239,320.800 97.349 M51.400 99.600 C 51.059 100.260,50.869 100.800,50.979 100.800 C 51.089 100.800,51.459 100.260,51.800 99.600 C 52.141 98.940,52.331 98.400,52.221 98.400 C 52.111 98.400,51.741 98.940,51.400 99.600 M348.200 99.600 C 348.541 100.260,348.911 100.800,349.021 100.800 C 349.131 100.800,348.941 100.260,348.600 99.600 C 348.259 98.940,347.889 98.400,347.779 98.400 C 347.669 98.400,347.859 98.940,348.200 99.600 M49.400 103.200 C 49.059 103.860,48.869 104.400,48.979 104.400 C 49.089 104.400,49.459 103.860,49.800 103.200 C 50.141 102.540,50.331 102.000,50.221 102.000 C 50.111 102.000,49.741 102.540,49.400 103.200 M350.200 103.200 C 350.541 103.860,350.911 104.400,351.021 104.400 C 351.131 104.400,350.941 103.860,350.600 103.200 C 350.259 102.540,349.889 102.000,349.779 102.000 C 349.669 102.000,349.859 102.540,350.200 103.200 M71.178 103.900 L 69.800 105.400 71.300 104.022 C 72.696 102.738,72.984 102.400,72.678 102.400 C 72.612 102.400,71.937 103.075,71.178 103.900 M328.400 103.800 C 329.146 104.570,329.847 105.200,329.957 105.200 C 330.067 105.200,329.546 104.570,328.800 103.800 C 328.054 103.030,327.353 102.400,327.243 102.400 C 327.133 102.400,327.654 103.030,328.400 103.800 M66.223 108.089 C 65.438 109.210,65.436 109.600,66.216 109.600 C 66.889 109.600,70.000 108.107,70.000 107.784 C 70.000 107.674,69.263 107.960,68.361 108.420 C 66.557 109.340,65.968 109.183,66.719 107.982 C 67.390 106.907,66.990 106.993,66.223 108.089 M333.345 107.876 C 333.534 108.159,333.585 108.662,333.457 108.995 C 333.315 109.366,333.453 109.600,333.813 109.600 C 334.596 109.600,334.554 109.057,333.700 108.125 C 333.315 107.706,333.155 107.593,333.345 107.876 M330.000 107.796 C 330.000 108.070,332.449 109.284,332.632 109.101 C 332.719 109.014,332.162 108.644,331.395 108.278 C 330.628 107.912,330.000 107.695,330.000 107.796 M42.475 117.019 C 41.270 119.500,41.405 119.847,42.646 117.461 C 43.201 116.394,43.587 115.453,43.503 115.370 C 43.419 115.286,42.957 116.028,42.475 117.019 M356.436 115.400 C 356.436 115.620,356.870 116.610,357.400 117.600 C 357.930 118.590,358.364 119.220,358.364 119.000 C 358.364 118.780,357.930 117.790,357.400 116.800 C 356.870 115.810,356.436 115.180,356.436 115.400 M139.315 181.896 C 140.588 181.976,142.568 181.975,143.715 181.894 C 144.862 181.814,143.820 181.749,141.400 181.750 C 138.980 181.751,138.042 181.816,139.315 181.896 M256.515 181.896 C 257.788 181.976,259.768 181.975,260.915 181.894 C 262.062 181.814,261.020 181.749,258.600 181.750 C 256.180 181.751,255.242 181.816,256.515 181.896 M133.000 182.800 C 132.496 183.017,132.422 183.144,132.800 183.144 C 133.130 183.144,133.760 182.989,134.200 182.800 C 134.704 182.583,134.778 182.456,134.400 182.456 C 134.070 182.456,133.440 182.611,133.000 182.800 M265.800 182.800 C 266.240 182.989,266.870 183.144,267.200 183.144 C 267.578 183.144,267.504 183.017,267.000 182.800 C 266.560 182.611,265.930 182.456,265.600 182.456 C 265.222 182.456,265.296 182.583,265.800 182.800 M18.629 183.829 C 18.481 184.415,18.438 184.972,18.532 185.066 C 18.627 185.160,18.824 184.758,18.971 184.171 C 19.119 183.585,19.162 183.028,19.068 182.934 C 18.973 182.840,18.776 183.242,18.629 183.829 M380.856 183.200 C 380.856 183.530,381.011 184.160,381.200 184.600 C 381.417 185.104,381.544 185.178,381.544 184.800 C 381.544 184.470,381.389 183.840,381.200 183.400 C 380.983 182.896,380.856 182.822,380.856 183.200 M156.000 185.724 C 156.000 185.817,156.765 186.398,157.700 187.015 C 158.635 187.632,159.189 187.880,158.931 187.568 C 158.434 186.967,156.000 185.436,156.000 185.724 M242.293 186.614 C 241.472 187.172,240.800 187.715,240.800 187.820 C 240.800 187.925,241.520 187.535,242.400 186.953 C 243.797 186.028,244.270 185.600,243.893 185.600 C 243.834 185.600,243.114 186.056,242.293 186.614 M162.200 190.800 C 163.728 192.340,165.069 193.600,165.179 193.600 C 165.289 193.600,164.128 192.340,162.600 190.800 C 161.072 189.260,159.731 188.000,159.621 188.000 C 159.511 188.000,160.672 189.260,162.200 190.800 M237.389 190.900 L 234.600 193.800 237.500 191.011 C 239.095 189.477,240.400 188.172,240.400 188.111 C 240.400 187.817,239.980 188.206,237.389 190.900 M120.386 190.700 L 118.200 193.000 120.500 190.814 C 122.637 188.782,122.983 188.400,122.686 188.400 C 122.624 188.400,121.589 189.435,120.386 190.700 M279.200 190.600 C 280.395 191.810,281.463 192.800,281.573 192.800 C 281.683 192.800,280.795 191.810,279.600 190.600 C 278.405 189.390,277.337 188.400,277.227 188.400 C 277.117 188.400,278.005 189.390,279.200 190.600 M117.544 193.900 C 116.393 195.289,115.906 196.000,116.104 196.000 C 116.214 196.000,116.786 195.370,117.373 194.600 C 118.463 193.171,118.595 192.632,117.544 193.900 M282.575 194.532 C 283.191 195.339,283.776 196.000,283.875 196.000 C 284.153 196.000,282.421 193.660,281.909 193.344 C 281.659 193.189,281.959 193.724,282.575 194.532 M113.580 200.039 C 113.120 200.940,112.813 201.746,112.897 201.830 C 112.981 201.914,113.441 201.176,113.919 200.191 C 115.009 197.947,114.715 197.815,113.580 200.039 M286.081 200.191 C 286.559 201.176,287.019 201.914,287.103 201.830 C 287.284 201.649,285.668 198.400,285.397 198.400 C 285.294 198.400,285.602 199.206,286.081 200.191 M110.600 208.000 C 110.448 208.691,110.407 209.341,110.509 209.442 C 110.611 209.544,110.809 209.053,110.950 208.350 C 111.283 206.683,110.960 206.360,110.600 208.000 M288.868 207.200 C 288.888 208.239,289.518 209.946,289.532 209.000 C 289.538 208.560,289.389 207.840,289.200 207.400 C 288.989 206.910,288.861 206.832,288.868 207.200 M109.724 214.200 C 109.726 215.520,109.801 216.012,109.890 215.293 C 109.979 214.574,109.977 213.494,109.886 212.893 C 109.795 212.292,109.722 212.880,109.724 214.200 M290.124 214.200 C 290.126 215.520,290.201 216.012,290.290 215.293 C 290.379 214.574,290.377 213.494,290.286 212.893 C 290.195 212.292,290.122 212.880,290.124 214.200 M109.724 221.800 C 109.726 223.120,109.801 223.612,109.890 222.893 C 109.979 222.174,109.977 221.094,109.886 220.493 C 109.795 219.892,109.722 220.480,109.724 221.800 M290.124 221.800 C 290.126 223.120,290.201 223.612,290.290 222.893 C 290.379 222.174,290.377 221.094,290.286 220.493 C 290.195 219.892,290.122 220.480,290.124 221.800 M9.455 225.855 C 9.313 226.886,9.274 227.808,9.369 227.902 C 9.463 227.996,9.665 227.239,9.818 226.218 C 9.971 225.198,10.010 224.276,9.904 224.171 C 9.798 224.065,9.596 224.823,9.455 225.855 M390.040 225.033 C 390.062 225.675,390.233 226.650,390.420 227.200 C 390.649 227.874,390.684 227.549,390.528 226.200 C 390.269 223.950,389.979 223.259,390.040 225.033 M110.468 227.000 C 110.462 227.440,110.611 228.160,110.800 228.600 C 111.238 229.619,111.238 228.568,110.800 227.200 C 110.543 226.396,110.477 226.357,110.468 227.000 M289.050 227.650 C 288.909 228.353,288.869 229.002,288.959 229.092 C 289.050 229.183,289.248 228.691,289.400 228.000 C 289.552 227.309,289.593 226.659,289.491 226.558 C 289.389 226.456,289.191 226.947,289.050 227.650 M112.400 233.345 C 112.400 233.779,114.787 238.400,115.012 238.400 C 115.122 238.400,114.648 237.275,113.958 235.900 C 112.652 233.294,112.400 232.881,112.400 233.345 M286.083 235.813 C 285.382 237.236,284.893 238.400,284.998 238.400 C 285.266 238.400,287.685 233.551,287.506 233.372 C 287.425 233.292,286.785 234.390,286.083 235.813 M7.693 237.600 C 7.693 238.370,7.775 238.685,7.876 238.300 C 7.976 237.915,7.976 237.285,7.876 236.900 C 7.775 236.515,7.693 236.830,7.693 237.600 M392.093 237.600 C 392.093 238.370,392.175 238.685,392.276 238.300 C 392.376 237.915,392.376 237.285,392.276 236.900 C 392.175 236.515,392.093 236.830,392.093 237.600 M116.363 240.665 C 116.598 241.140,118.097 242.866,119.695 244.500 C 121.668 246.518,121.890 246.690,120.387 245.036 C 119.170 243.696,117.670 241.970,117.055 241.200 C 116.439 240.430,116.127 240.189,116.363 240.665 M283.032 241.007 C 282.669 241.562,281.253 243.246,279.886 244.751 L 277.400 247.487 280.305 244.508 C 281.903 242.869,283.394 241.185,283.619 240.765 C 284.211 239.658,283.806 239.826,283.032 241.007 M163.775 243.700 L 162.600 245.000 163.900 243.825 C 164.615 243.179,165.200 242.594,165.200 242.525 C 165.200 242.216,164.870 242.488,163.775 243.700 M234.800 242.525 C 234.800 242.594,235.385 243.179,236.100 243.825 L 237.400 245.000 236.225 243.700 C 235.130 242.488,234.800 242.216,234.800 242.525 M6.509 245.600 C 6.509 246.590,6.587 246.995,6.682 246.500 C 6.778 246.005,6.778 245.195,6.682 244.700 C 6.587 244.205,6.509 244.610,6.509 245.600 M393.309 245.600 C 393.309 246.590,393.387 246.995,393.482 246.500 C 393.578 246.005,393.578 245.195,393.482 244.700 C 393.387 244.205,393.309 244.610,393.309 245.600 M123.673 248.226 C 124.043 248.652,124.943 249.341,125.673 249.757 C 127.239 250.650,126.826 250.207,124.600 248.604 C 123.669 247.934,123.282 247.776,123.673 248.226 M275.014 248.846 C 272.913 250.426,272.716 250.687,274.327 249.762 C 275.462 249.110,277.247 247.545,276.762 247.627 C 276.673 247.642,275.886 248.191,275.014 248.846 M154.400 251.000 C 153.410 251.530,152.742 251.972,152.916 251.982 C 153.341 252.006,156.400 250.434,156.400 250.192 C 156.400 249.927,156.417 249.920,154.400 251.000 M243.600 250.197 C 243.600 250.468,246.849 252.084,247.030 251.903 C 247.114 251.819,246.376 251.359,245.391 250.881 C 244.406 250.402,243.600 250.094,243.600 250.197 M5.701 251.800 C 5.705 252.680,5.787 252.993,5.883 252.495 C 5.979 251.998,5.975 251.278,5.875 250.895 C 5.775 250.513,5.696 250.920,5.701 251.800 M394.101 251.800 C 394.105 252.680,394.187 252.993,394.283 252.495 C 394.379 251.998,394.375 251.278,394.275 250.895 C 394.175 250.513,394.096 250.920,394.101 251.800 M134.400 253.594 C 134.730 253.811,135.435 253.991,135.967 253.994 C 137.251 254.002,136.925 253.775,135.200 253.458 C 134.215 253.277,133.978 253.318,134.400 253.594 M264.200 253.600 C 263.093 253.882,263.077 253.909,264.000 253.947 C 264.550 253.969,265.270 253.813,265.600 253.600 C 266.281 253.160,265.929 253.160,264.200 253.600 M4.509 262.000 C 4.509 262.990,4.587 263.395,4.682 262.900 C 4.778 262.405,4.778 261.595,4.682 261.100 C 4.587 260.605,4.509 261.010,4.509 262.000 M395.314 262.200 C 395.317 263.300,395.395 263.703,395.487 263.095 C 395.579 262.486,395.577 261.586,395.482 261.095 C 395.387 260.603,395.311 261.100,395.314 262.200 M3.720 270.000 C 3.720 271.210,3.795 271.705,3.887 271.100 C 3.978 270.495,3.978 269.505,3.887 268.900 C 3.795 268.295,3.720 268.790,3.720 270.000 M396.120 270.000 C 396.120 271.210,396.195 271.705,396.287 271.100 C 396.378 270.495,396.378 269.505,396.287 268.900 C 396.195 268.295,396.120 268.790,396.120 270.000 M3.301 273.800 C 3.305 274.680,3.387 274.993,3.483 274.495 C 3.579 273.998,3.575 273.278,3.475 272.895 C 3.375 272.513,3.296 272.920,3.301 273.800 M396.501 273.800 C 396.505 274.680,396.587 274.993,396.683 274.495 C 396.779 273.998,396.775 273.278,396.675 272.895 C 396.575 272.513,396.496 272.920,396.501 273.800 M56.800 273.338 C 56.800 273.634,57.188 274.219,57.662 274.638 L 58.524 275.400 57.763 274.219 C 57.049 273.110,57.046 273.055,57.722 273.315 C 58.156 273.481,58.345 273.434,58.197 273.195 C 57.835 272.610,56.800 272.716,56.800 273.338 M341.803 273.195 C 341.655 273.434,341.844 273.481,342.278 273.315 C 342.954 273.055,342.951 273.110,342.237 274.219 L 341.476 275.400 342.338 274.638 C 342.812 274.219,343.200 273.634,343.200 273.338 C 343.200 272.716,342.165 272.610,341.803 273.195 M62.600 279.939 C 64.800 282.204,68.220 285.517,70.200 287.302 C 74.399 291.087,73.309 289.973,64.800 281.786 C 60.535 277.682,59.848 277.106,62.600 279.939 M333.600 283.308 C 329.530 287.306,327.820 289.110,329.800 287.317 C 333.447 284.015,341.546 275.984,341.192 276.020 C 341.087 276.031,337.670 279.310,333.600 283.308 M63.200 276.962 C 63.200 277.072,64.010 277.719,65.000 278.400 C 65.990 279.081,66.800 279.548,66.800 279.438 C 66.800 279.328,65.990 278.681,65.000 278.000 C 64.010 277.319,63.200 276.852,63.200 276.962 M334.900 278.040 C 333.965 278.702,333.200 279.333,333.200 279.441 C 333.200 279.550,334.010 279.081,335.000 278.400 C 335.990 277.719,336.800 277.080,336.800 276.981 C 336.800 276.705,336.724 276.748,334.900 278.040 M2.901 279.800 C 2.905 280.680,2.987 280.993,3.083 280.495 C 3.179 279.998,3.175 279.278,3.075 278.895 C 2.975 278.513,2.896 278.920,2.901 279.800 M396.901 279.800 C 396.905 280.680,396.987 280.993,397.083 280.495 C 397.179 279.998,397.175 279.278,397.075 278.895 C 396.975 278.513,396.896 278.920,396.901 279.800 M2.308 285.700 C 2.206 287.955,2.230 289.926,2.361 290.080 C 2.493 290.233,2.661 288.388,2.735 285.980 C 2.810 283.571,2.786 281.600,2.682 281.600 C 2.578 281.600,2.410 283.445,2.308 285.700 M397.344 285.200 C 397.344 287.290,397.412 288.145,397.494 287.100 C 397.576 286.055,397.576 284.345,397.494 283.300 C 397.412 282.255,397.344 283.110,397.344 285.200 M82.400 288.984 C 82.400 289.094,83.120 289.551,84.000 290.000 C 84.880 290.449,85.600 290.726,85.600 290.616 C 85.600 290.506,84.880 290.049,84.000 289.600 C 83.120 289.151,82.400 288.874,82.400 288.984 M315.900 289.627 C 315.075 290.063,314.400 290.508,314.400 290.618 C 314.400 290.727,315.120 290.449,316.000 290.000 C 316.880 289.551,317.600 289.097,317.600 288.992 C 317.600 288.730,317.597 288.731,315.900 289.627 M74.117 290.664 C 74.461 291.223,78.400 294.554,78.400 294.286 C 78.400 294.182,77.372 293.220,76.116 292.149 C 74.860 291.077,73.961 290.409,74.117 290.664 M323.600 292.457 L 321.400 294.489 323.499 292.808 C 325.339 291.334,326.313 290.373,325.924 290.413 C 325.856 290.420,324.810 291.340,323.600 292.457 M4.200 292.400 C 5.059 293.280,5.852 294.000,5.962 294.000 C 6.072 294.000,5.459 293.280,4.600 292.400 C 3.741 291.520,2.948 290.800,2.838 290.800 C 2.728 290.800,3.341 291.520,4.200 292.400 M395.381 292.500 L 393.800 294.200 395.500 292.619 C 397.081 291.148,397.384 290.800,397.081 290.800 C 397.016 290.800,396.251 291.565,395.381 292.500 M95.200 295.600 C 95.970 296.022,96.780 296.366,97.000 296.366 C 97.220 296.366,96.770 296.022,96.000 295.600 C 95.230 295.178,94.420 294.834,94.200 294.834 C 93.980 294.834,94.430 295.178,95.200 295.600 M304.000 295.600 C 303.230 296.022,302.780 296.366,303.000 296.366 C 303.220 296.366,304.030 296.022,304.800 295.600 C 305.570 295.178,306.020 294.834,305.800 294.834 C 305.580 294.834,304.770 295.178,304.000 295.600 M80.944 296.309 C 81.260 296.821,83.600 298.553,83.600 298.275 C 83.600 298.176,82.939 297.591,82.132 296.975 C 81.324 296.359,80.789 296.059,80.944 296.309 M317.600 297.249 C 316.206 298.471,316.205 298.472,317.488 297.619 C 318.196 297.148,318.882 296.591,319.012 296.381 C 319.397 295.757,319.077 295.954,317.600 297.249 M8.800 297.325 C 8.800 297.394,9.385 297.979,10.100 298.625 L 11.400 299.800 10.225 298.500 C 9.130 297.288,8.800 297.016,8.800 297.325 M389.775 298.500 L 388.600 299.800 389.900 298.625 C 391.112 297.530,391.384 297.200,391.075 297.200 C 391.006 297.200,390.421 297.785,389.775 298.500 M13.800 302.000 C 14.659 302.880,15.452 303.600,15.562 303.600 C 15.672 303.600,15.059 302.880,14.200 302.000 C 13.341 301.120,12.548 300.400,12.438 300.400 C 12.328 300.400,12.941 301.120,13.800 302.000 M385.781 302.100 L 384.200 303.800 385.900 302.219 C 386.835 301.349,387.600 300.584,387.600 300.519 C 387.600 300.216,387.252 300.519,385.781 302.100 M90.000 302.921 C 90.000 303.012,91.035 303.751,92.300 304.563 C 93.565 305.375,94.108 305.621,93.506 305.110 C 92.318 304.100,90.000 302.653,90.000 302.921 M307.695 304.211 C 306.543 304.986,305.600 305.708,305.600 305.815 C 305.600 305.921,306.590 305.351,307.800 304.547 C 309.722 303.271,310.287 302.800,309.895 302.800 C 309.837 302.800,308.847 303.435,307.695 304.211 M16.517 304.264 C 16.861 304.823,20.800 308.154,20.800 307.886 C 20.800 307.782,19.772 306.820,18.516 305.749 C 17.260 304.677,16.361 304.009,16.517 304.264 M381.200 306.057 L 379.000 308.089 381.099 306.408 C 382.939 304.934,383.913 303.973,383.524 304.013 C 383.456 304.020,382.410 304.940,381.200 306.057 M21.200 308.133 C 21.200 308.243,21.920 308.903,22.800 309.600 C 23.680 310.297,24.400 310.777,24.400 310.667 C 24.400 310.557,23.680 309.897,22.800 309.200 C 21.920 308.503,21.200 308.023,21.200 308.133 M377.000 309.444 L 375.400 310.876 377.100 309.604 C 378.563 308.510,379.091 307.983,378.700 308.006 C 378.645 308.009,377.880 308.656,377.000 309.444 M24.800 310.946 C 24.800 311.056,25.340 311.530,26.000 312.000 C 26.660 312.470,27.200 312.764,27.200 312.654 C 27.200 312.544,26.660 312.070,26.000 311.600 C 25.340 311.130,24.800 310.836,24.800 310.946 M373.800 311.835 L 372.600 312.866 373.900 312.006 C 374.615 311.533,375.200 311.068,375.200 310.973 C 375.200 310.673,375.031 310.778,373.800 311.835 M103.600 311.384 C 103.600 311.494,104.320 311.951,105.200 312.400 C 106.080 312.849,106.800 313.126,106.800 313.016 C 106.800 312.906,106.080 312.449,105.200 312.000 C 104.320 311.551,103.600 311.274,103.600 311.384 M294.700 312.027 C 293.875 312.463,293.200 312.908,293.200 313.018 C 293.200 313.127,293.920 312.849,294.800 312.400 C 295.680 311.951,296.400 311.497,296.400 311.392 C 296.400 311.130,296.397 311.131,294.700 312.027 M27.600 312.982 C 27.600 313.085,28.635 313.866,29.900 314.715 C 32.701 316.598,33.200 316.895,33.200 316.682 C 33.200 316.592,31.940 315.680,30.400 314.655 C 28.860 313.631,27.600 312.878,27.600 312.982 M368.493 315.365 C 365.074 317.685,363.357 319.000,364.800 318.193 C 366.190 317.415,372.400 313.164,372.400 312.990 C 372.400 312.708,372.481 312.658,368.493 315.365 M155.105 313.483 C 155.602 313.579,156.322 313.575,156.705 313.475 C 157.087 313.375,156.680 313.296,155.800 313.301 C 154.920 313.305,154.607 313.387,155.105 313.483 M243.505 313.483 C 244.002 313.579,244.722 313.575,245.105 313.475 C 245.487 313.375,245.080 313.296,244.200 313.301 C 243.320 313.305,243.007 313.387,243.505 313.483 M160.500 314.276 C 160.885 314.376,161.515 314.376,161.900 314.276 C 162.285 314.175,161.970 314.093,161.200 314.093 C 160.430 314.093,160.115 314.175,160.500 314.276 M238.100 314.276 C 238.485 314.376,239.115 314.376,239.500 314.276 C 239.885 314.175,239.570 314.093,238.800 314.093 C 238.030 314.093,237.715 314.175,238.100 314.276 M170.900 315.487 C 171.505 315.578,172.495 315.578,173.100 315.487 C 173.705 315.395,173.210 315.320,172.000 315.320 C 170.790 315.320,170.295 315.395,170.900 315.487 M226.900 315.487 C 227.505 315.578,228.495 315.578,229.100 315.487 C 229.705 315.395,229.210 315.320,228.000 315.320 C 226.790 315.320,226.295 315.395,226.900 315.487 M181.511 316.293 C 182.451 316.378,183.891 316.377,184.711 316.291 C 185.530 316.205,184.760 316.136,183.000 316.137 C 181.240 316.139,180.570 316.209,181.511 316.293 M215.511 316.293 C 216.451 316.378,217.891 316.377,218.711 316.291 C 219.530 316.205,218.760 316.136,217.000 316.137 C 215.240 316.139,214.570 316.209,215.511 316.293 M188.500 316.696 C 189.765 316.775,191.835 316.775,193.100 316.696 C 194.365 316.616,193.330 316.551,190.800 316.551 C 188.270 316.551,187.235 316.616,188.500 316.696 M206.900 316.696 C 208.165 316.775,210.235 316.775,211.500 316.696 C 212.765 316.616,211.730 316.551,209.200 316.551 C 206.670 316.551,205.635 316.616,206.900 316.696 M116.400 318.000 C 117.170 318.422,117.980 318.766,118.200 318.766 C 118.420 318.766,117.970 318.422,117.200 318.000 C 116.430 317.578,115.620 317.234,115.400 317.234 C 115.180 317.234,115.630 317.578,116.400 318.000 M282.800 318.000 C 282.030 318.422,281.580 318.766,281.800 318.766 C 282.020 318.766,282.830 318.422,283.600 318.000 C 284.370 317.578,284.820 317.234,284.600 317.234 C 284.380 317.234,283.570 317.578,282.800 318.000 M40.800 321.379 C 40.800 321.489,41.340 321.859,42.000 322.200 C 42.660 322.541,43.200 322.731,43.200 322.621 C 43.200 322.511,42.660 322.141,42.000 321.800 C 41.340 321.459,40.800 321.269,40.800 321.379 M357.900 321.829 C 356.405 322.640,356.496 322.978,358.000 322.200 C 358.660 321.859,359.200 321.494,359.200 321.390 C 359.200 321.132,359.157 321.147,357.900 321.829 M131.990 324.263 C 132.599 324.566,132.494 325.135,131.567 326.538 L 130.734 327.800 131.771 326.600 C 132.844 325.359,132.977 324.343,132.090 324.163 C 131.810 324.106,131.764 324.151,131.990 324.263 M267.350 324.586 C 267.149 325.110,268.557 327.600,269.054 327.600 C 269.164 327.600,268.882 327.077,268.427 326.438 C 267.476 325.103,267.393 324.550,268.100 324.265 C 268.492 324.107,268.489 324.056,268.087 324.032 C 267.806 324.014,267.474 324.264,267.350 324.586 M125.600 334.400 C 124.903 335.280,124.423 336.000,124.533 336.000 C 124.643 336.000,125.303 335.280,126.000 334.400 C 126.697 333.520,127.177 332.800,127.067 332.800 C 126.957 332.800,126.297 333.520,125.600 334.400 M274.000 334.400 C 274.697 335.280,275.357 336.000,275.467 336.000 C 275.577 336.000,275.097 335.280,274.400 334.400 C 273.703 333.520,273.043 332.800,272.933 332.800 C 272.823 332.800,273.303 333.520,274.000 334.400 M120.382 341.378 C 119.001 343.207,118.503 343.580,117.269 343.710 L 115.800 343.866 117.277 343.933 C 118.638 343.995,118.897 343.813,120.600 341.600 C 121.616 340.280,122.352 339.200,122.236 339.200 C 122.121 339.200,121.286 340.180,120.382 341.378 M279.400 341.600 C 281.103 343.813,281.362 343.995,282.723 343.933 L 284.200 343.866 282.731 343.710 C 281.497 343.580,280.999 343.207,279.618 341.378 C 278.714 340.180,277.879 339.200,277.764 339.200 C 277.648 339.200,278.384 340.280,279.400 341.600 M104.705 342.683 C 105.202 342.779,105.922 342.775,106.305 342.675 C 106.687 342.575,106.280 342.496,105.400 342.501 C 104.520 342.505,104.207 342.587,104.705 342.683 M293.905 342.683 C 294.402 342.779,295.122 342.775,295.505 342.675 C 295.887 342.575,295.480 342.496,294.600 342.501 C 293.720 342.505,293.407 342.587,293.905 342.683 M113.105 343.483 C 113.602 343.579,114.322 343.575,114.705 343.475 C 115.087 343.375,114.680 343.296,113.800 343.301 C 112.920 343.305,112.607 343.387,113.105 343.483 M285.505 343.483 C 286.002 343.579,286.722 343.575,287.105 343.475 C 287.487 343.375,287.080 343.296,286.200 343.301 C 285.320 343.305,285.007 343.387,285.505 343.483 " stroke="none" fill="#838ab4" fill-rule="evenodd"></path>
<path id="path3" d="M140.305 56.683 C 140.802 56.779,141.522 56.775,141.905 56.675 C 142.287 56.575,141.880 56.496,141.000 56.501 C 140.120 56.505,139.807 56.587,140.305 56.683 M258.700 56.682 C 259.195 56.778,260.005 56.778,260.500 56.682 C 260.995 56.587,260.590 56.509,259.600 56.509 C 258.610 56.509,258.205 56.587,258.700 56.682 M149.600 63.946 C 149.600 64.210,149.195 64.589,148.700 64.788 C 148.091 65.032,148.010 65.157,148.451 65.175 C 149.191 65.203,150.247 64.114,149.857 63.724 C 149.716 63.582,149.600 63.682,149.600 63.946 M250.012 63.851 C 249.994 64.511,251.091 65.309,251.687 65.069 C 252.017 64.937,251.958 64.852,251.520 64.832 C 251.146 64.814,250.656 64.485,250.432 64.100 C 250.208 63.715,250.019 63.603,250.012 63.851 M259.000 67.200 C 259.440 67.389,260.070 67.544,260.400 67.544 C 260.778 67.544,260.704 67.417,260.200 67.200 C 259.760 67.011,259.130 66.856,258.800 66.856 C 258.422 66.856,258.496 66.983,259.000 67.200 M308.800 71.400 C 309.350 71.714,309.980 71.972,310.200 71.972 C 310.420 71.972,310.150 71.714,309.600 71.400 C 309.050 71.086,308.420 70.828,308.200 70.828 C 307.980 70.828,308.250 71.086,308.800 71.400 M190.500 74.294 C 191.545 74.376,193.255 74.376,194.300 74.294 C 195.345 74.212,194.490 74.144,192.400 74.144 C 190.310 74.144,189.455 74.212,190.500 74.294 M205.700 74.294 C 206.745 74.376,208.455 74.376,209.500 74.294 C 210.545 74.212,209.690 74.144,207.600 74.144 C 205.510 74.144,204.655 74.212,205.700 74.294 M179.905 74.683 C 180.402 74.779,181.122 74.775,181.505 74.675 C 181.887 74.575,181.480 74.496,180.600 74.501 C 179.720 74.505,179.407 74.587,179.905 74.683 M218.705 74.683 C 219.202 74.779,219.922 74.775,220.305 74.675 C 220.687 74.575,220.280 74.496,219.400 74.501 C 218.520 74.505,218.207 74.587,218.705 74.683 M175.500 75.082 C 175.995 75.178,176.805 75.178,177.300 75.082 C 177.795 74.987,177.390 74.909,176.400 74.909 C 175.410 74.909,175.005 74.987,175.500 75.082 M222.700 75.082 C 223.195 75.178,224.005 75.178,224.500 75.082 C 224.995 74.987,224.590 74.909,223.600 74.909 C 222.610 74.909,222.205 74.987,222.700 75.082 M166.505 75.887 C 167.114 75.979,168.014 75.977,168.505 75.882 C 168.997 75.787,168.500 75.711,167.400 75.714 C 166.300 75.717,165.897 75.795,166.505 75.887 M231.705 75.887 C 232.314 75.979,233.214 75.977,233.705 75.882 C 234.197 75.787,233.700 75.711,232.600 75.714 C 231.500 75.717,231.097 75.795,231.705 75.887 M79.100 77.029 C 77.605 77.840,77.696 78.178,79.200 77.400 C 79.860 77.059,80.400 76.694,80.400 76.590 C 80.400 76.332,80.357 76.347,79.100 77.029 M55.923 91.900 C 55.218 92.721,54.690 93.600,54.901 93.600 C 54.983 93.600,55.449 93.060,55.937 92.400 C 56.901 91.096,56.892 90.772,55.923 91.900 M343.999 92.300 C 344.522 93.015,345.013 93.600,345.089 93.600 C 345.393 93.600,344.401 92.100,343.745 91.567 C 343.313 91.216,343.410 91.496,343.999 92.300 M86.000 99.400 C 85.010 99.930,84.380 100.364,84.600 100.364 C 84.820 100.364,85.810 99.930,86.800 99.400 C 87.790 98.870,88.420 98.436,88.200 98.436 C 87.980 98.436,86.990 98.870,86.000 99.400 M313.200 99.400 C 314.190 99.930,315.180 100.364,315.400 100.364 C 315.620 100.364,314.990 99.930,314.000 99.400 C 313.010 98.870,312.020 98.436,311.800 98.436 C 311.580 98.436,312.210 98.870,313.200 99.400 M72.376 103.231 L 70.200 105.261 72.500 103.354 C 74.611 101.604,75.019 101.200,74.676 101.200 C 74.608 101.200,73.573 102.114,72.376 103.231 M66.880 107.680 C 65.843 108.717,66.432 109.597,67.600 108.756 C 68.106 108.392,68.091 108.360,67.500 108.550 C 66.692 108.810,66.583 108.377,67.280 107.680 C 67.544 107.416,67.670 107.200,67.560 107.200 C 67.450 107.200,67.144 107.416,66.880 107.680 M332.700 107.599 C 333.408 108.393,333.320 108.813,332.500 108.550 C 331.909 108.360,331.894 108.392,332.400 108.756 C 333.691 109.685,334.176 108.533,332.900 107.568 C 332.304 107.118,332.275 107.122,332.700 107.599 M44.065 113.017 C 43.395 114.488,43.523 114.802,44.247 113.465 C 44.586 112.840,44.788 112.254,44.696 112.163 C 44.605 112.071,44.321 112.456,44.065 113.017 M355.228 112.200 C 355.228 112.420,355.486 113.050,355.800 113.600 C 356.114 114.150,356.372 114.420,356.372 114.200 C 356.372 113.980,356.114 113.350,355.800 112.800 C 355.486 112.250,355.228 111.980,355.228 112.200 M159.200 188.110 C 159.200 188.171,160.595 189.566,162.300 191.210 L 165.400 194.200 162.410 191.100 C 159.633 188.221,159.200 187.817,159.200 188.110 M237.600 191.000 C 235.961 192.650,234.710 194.000,234.820 194.000 C 234.930 194.000,236.361 192.650,238.000 191.000 C 239.639 189.350,240.890 188.000,240.780 188.000 C 240.670 188.000,239.239 189.350,237.600 191.000 M120.587 190.900 L 118.200 193.400 120.700 191.013 C 123.022 188.795,123.383 188.400,123.087 188.400 C 123.026 188.400,121.901 189.525,120.587 190.900 M279.000 190.800 C 280.306 192.120,281.465 193.200,281.575 193.200 C 281.685 193.200,280.706 192.120,279.400 190.800 C 278.094 189.480,276.935 188.400,276.825 188.400 C 276.715 188.400,277.694 189.480,279.000 190.800 M115.000 198.000 C 114.659 198.660,114.469 199.200,114.579 199.200 C 114.689 199.200,115.059 198.660,115.400 198.000 C 115.741 197.340,115.931 196.800,115.821 196.800 C 115.711 196.800,115.341 197.340,115.000 198.000 M284.600 198.000 C 284.941 198.660,285.311 199.200,285.421 199.200 C 285.531 199.200,285.341 198.660,285.000 198.000 C 284.659 197.340,284.289 196.800,284.179 196.800 C 284.069 196.800,284.259 197.340,284.600 198.000 M168.200 199.200 C 168.541 199.860,168.911 200.400,169.021 200.400 C 169.131 200.400,168.941 199.860,168.600 199.200 C 168.259 198.540,167.889 198.000,167.779 198.000 C 167.669 198.000,167.859 198.540,168.200 199.200 M231.400 199.200 C 231.059 199.860,230.869 200.400,230.979 200.400 C 231.089 200.400,231.459 199.860,231.800 199.200 C 232.141 198.540,232.331 198.000,232.221 198.000 C 232.111 198.000,231.741 198.540,231.400 199.200 M172.954 218.000 C 172.954 220.750,173.018 221.875,173.096 220.500 C 173.174 219.125,173.174 216.875,173.096 215.500 C 173.018 214.125,172.954 215.250,172.954 218.000 M226.954 218.000 C 226.954 220.750,227.018 221.875,227.096 220.500 C 227.174 219.125,227.174 216.875,227.096 215.500 C 227.018 214.125,226.954 215.250,226.954 218.000 M109.709 218.000 C 109.709 218.990,109.787 219.395,109.882 218.900 C 109.978 218.405,109.978 217.595,109.882 217.100 C 109.787 216.605,109.709 217.010,109.709 218.000 M290.109 218.000 C 290.109 218.990,290.187 219.395,290.282 218.900 C 290.378 218.405,290.378 217.595,290.282 217.100 C 290.187 216.605,290.109 217.010,290.109 218.000 M168.200 236.800 C 167.859 237.460,167.669 238.000,167.779 238.000 C 167.889 238.000,168.259 237.460,168.600 236.800 C 168.941 236.140,169.131 235.600,169.021 235.600 C 168.911 235.600,168.541 236.140,168.200 236.800 M231.400 236.800 C 231.741 237.460,232.111 238.000,232.221 238.000 C 232.331 238.000,232.141 237.460,231.800 236.800 C 231.459 236.140,231.089 235.600,230.979 235.600 C 230.869 235.600,231.059 236.140,231.400 236.800 M6.893 241.200 C 6.893 241.970,6.975 242.285,7.076 241.900 C 7.176 241.515,7.176 240.885,7.076 240.500 C 6.975 240.115,6.893 240.430,6.893 241.200 M392.893 241.200 C 392.893 241.970,392.975 242.285,393.076 241.900 C 393.176 241.515,393.176 240.885,393.076 240.500 C 392.975 240.115,392.893 240.430,392.893 241.200 M120.800 245.325 C 120.800 245.394,121.385 245.979,122.100 246.625 L 123.400 247.800 122.225 246.500 C 121.130 245.288,120.800 245.016,120.800 245.325 M277.775 246.500 L 276.600 247.800 277.900 246.625 C 278.615 245.979,279.200 245.394,279.200 245.325 C 279.200 245.016,278.870 245.288,277.775 246.500 M140.100 254.291 C 140.925 254.378,142.275 254.378,143.100 254.291 C 143.925 254.205,143.250 254.134,141.600 254.134 C 139.950 254.134,139.275 254.205,140.100 254.291 M256.900 254.291 C 257.725 254.378,259.075 254.378,259.900 254.291 C 260.725 254.205,260.050 254.134,258.400 254.134 C 256.750 254.134,256.075 254.205,256.900 254.291 M4.909 256.400 C 4.909 257.390,4.987 257.795,5.082 257.300 C 5.178 256.805,5.178 255.995,5.082 255.500 C 4.987 255.005,4.909 255.410,4.909 256.400 M394.909 256.400 C 394.909 257.390,394.987 257.795,395.082 257.300 C 395.178 256.805,395.178 255.995,395.082 255.500 C 394.987 255.005,394.909 255.410,394.909 256.400 M4.093 263.600 C 4.093 264.370,4.175 264.685,4.276 264.300 C 4.376 263.915,4.376 263.285,4.276 262.900 C 4.175 262.515,4.093 262.830,4.093 263.600 M395.693 263.600 C 395.693 264.370,395.775 264.685,395.876 264.300 C 395.976 263.915,395.976 263.285,395.876 262.900 C 395.775 262.515,395.693 262.830,395.693 263.600 M57.600 274.000 C 57.835 274.440,58.122 274.800,58.238 274.800 C 58.353 274.800,58.336 274.620,58.200 274.400 C 57.911 273.932,58.465 273.865,59.028 274.300 C 59.242 274.465,59.078 274.285,58.664 273.900 C 57.650 272.957,57.071 273.011,57.600 274.000 M341.336 273.900 C 340.922 274.285,340.758 274.465,340.972 274.300 C 341.535 273.865,342.089 273.932,341.800 274.400 C 341.664 274.620,341.647 274.800,341.762 274.800 C 341.878 274.800,342.165 274.440,342.400 274.000 C 342.929 273.011,342.350 272.957,341.336 273.900 M2.920 276.400 C 2.920 277.610,2.995 278.105,3.087 277.500 C 3.178 276.895,3.178 275.905,3.087 275.300 C 2.995 274.695,2.920 275.190,2.920 276.400 M396.920 276.400 C 396.920 277.610,396.995 278.105,397.087 277.500 C 397.178 276.895,397.178 275.905,397.087 275.300 C 396.995 274.695,396.920 275.190,396.920 276.400 M64.000 281.000 C 67.184 284.190,69.880 286.800,69.990 286.800 C 70.100 286.800,67.584 284.190,64.400 281.000 C 61.216 277.810,58.520 275.200,58.410 275.200 C 58.300 275.200,60.816 277.810,64.000 281.000 M335.595 281.100 L 329.800 287.000 335.700 281.205 C 341.181 275.822,341.781 275.200,341.495 275.200 C 341.437 275.200,338.782 277.855,335.595 281.100 M2.101 287.000 C 2.105 287.880,2.187 288.193,2.283 287.695 C 2.379 287.198,2.375 286.478,2.275 286.095 C 2.175 285.713,2.096 286.120,2.101 287.000 M72.400 289.000 C 73.146 289.770,73.847 290.400,73.957 290.400 C 74.067 290.400,73.546 289.770,72.800 289.000 C 72.054 288.230,71.353 287.600,71.243 287.600 C 71.133 287.600,71.654 288.230,72.400 289.000 M327.178 289.100 L 325.800 290.600 327.300 289.222 C 328.125 288.463,328.800 287.788,328.800 287.722 C 328.800 287.416,328.462 287.704,327.178 289.100 M397.568 289.300 C 397.449 290.160,397.510 290.650,397.712 290.448 C 397.905 290.255,397.998 289.581,397.919 288.949 C 397.787 287.891,397.759 287.919,397.568 289.300 M4.383 292.900 C 5.364 293.945,6.219 294.800,6.283 294.800 C 6.584 294.800,6.266 294.441,4.500 292.783 L 2.600 291.000 4.383 292.900 M395.200 293.000 C 394.228 293.990,393.523 294.800,393.633 294.800 C 393.743 294.800,394.628 293.990,395.600 293.000 C 396.572 292.010,397.277 291.200,397.167 291.200 C 397.057 291.200,396.172 292.010,395.200 293.000 M13.000 301.600 C 14.083 302.700,15.060 303.600,15.170 303.600 C 15.280 303.600,14.483 302.700,13.400 301.600 C 12.317 300.500,11.340 299.600,11.230 299.600 C 11.120 299.600,11.917 300.500,13.000 301.600 M386.585 301.700 L 384.600 303.800 386.700 301.815 C 388.651 299.971,388.983 299.600,388.685 299.600 C 388.622 299.600,387.677 300.545,386.585 301.700 M164.905 315.087 C 165.514 315.179,166.414 315.177,166.905 315.082 C 167.397 314.987,166.900 314.911,165.800 314.914 C 164.700 314.917,164.297 314.995,164.905 315.087 M233.305 315.087 C 233.914 315.179,234.814 315.177,235.305 315.082 C 235.797 314.987,235.300 314.911,234.200 314.914 C 233.100 314.917,232.697 314.995,233.305 315.087 M172.700 315.882 C 173.195 315.978,174.005 315.978,174.500 315.882 C 174.995 315.787,174.590 315.709,173.600 315.709 C 172.610 315.709,172.205 315.787,172.700 315.882 M225.500 315.882 C 225.995 315.978,226.805 315.978,227.300 315.882 C 227.795 315.787,227.390 315.709,226.400 315.709 C 225.410 315.709,225.005 315.787,225.500 315.882 M177.500 316.282 C 177.995 316.378,178.805 316.378,179.300 316.282 C 179.795 316.187,179.390 316.109,178.400 316.109 C 177.410 316.109,177.005 316.187,177.500 316.282 M220.700 316.282 C 221.195 316.378,222.005 316.378,222.500 316.282 C 222.995 316.187,222.590 316.109,221.600 316.109 C 220.610 316.109,220.205 316.187,220.700 316.282 M196.900 317.097 C 198.605 317.172,201.395 317.172,203.100 317.097 C 204.805 317.022,203.410 316.961,200.000 316.961 C 196.590 316.961,195.195 317.022,196.900 317.097 M132.649 324.584 C 132.781 324.929,132.644 325.523,132.345 325.905 C 131.852 326.534,131.867 326.548,132.500 326.051 C 133.273 325.444,133.416 324.581,132.805 324.203 C 132.577 324.062,132.511 324.224,132.649 324.584 M266.933 324.631 C 266.795 324.990,267.007 325.551,267.423 325.931 C 268.111 326.559,268.124 326.558,267.633 325.905 C 267.346 325.523,267.215 324.938,267.343 324.605 C 267.470 324.272,267.485 324.000,267.375 324.000 C 267.265 324.000,267.066 324.284,266.933 324.631 M51.600 327.400 C 52.150 327.714,52.780 327.972,53.000 327.972 C 53.220 327.972,52.950 327.714,52.400 327.400 C 51.850 327.086,51.220 326.828,51.000 326.828 C 50.780 326.828,51.050 327.086,51.600 327.400 M347.600 327.400 C 347.050 327.714,346.780 327.972,347.000 327.972 C 347.220 327.972,347.850 327.714,348.400 327.400 C 348.950 327.086,349.220 326.828,349.000 326.828 C 348.780 326.828,348.150 327.086,347.600 327.400 M109.300 343.487 C 109.905 343.578,110.895 343.578,111.500 343.487 C 112.105 343.395,111.610 343.320,110.400 343.320 C 109.190 343.320,108.695 343.395,109.300 343.487 M288.500 343.487 C 289.105 343.578,290.095 343.578,290.700 343.487 C 291.305 343.395,290.810 343.320,289.600 343.320 C 288.390 343.320,287.895 343.395,288.500 343.487 M113.905 343.883 C 114.402 343.979,115.122 343.975,115.505 343.875 C 115.887 343.775,115.480 343.696,114.600 343.701 C 113.720 343.705,113.407 343.787,113.905 343.883 M284.705 343.883 C 285.202 343.979,285.922 343.975,286.305 343.875 C 286.687 343.775,286.280 343.696,285.400 343.701 C 284.520 343.705,284.207 343.787,284.705 343.883 " stroke="none" fill="#747c9f" fill-rule="evenodd"></path>
<path id="path4" d="M143.200 56.655 C 134.790 57.460,120.813 60.649,110.189 64.186 C 92.393 70.111,72.473 80.224,59.060 90.143 C 50.622 96.383,32.749 136.141,22.262 172.000 C 19.369 181.891,15.365 197.536,14.021 204.200 C 13.844 205.080,13.334 207.600,12.889 209.800 C 11.173 218.272,10.431 222.132,10.005 224.800 C 9.520 227.832,8.098 236.490,7.607 239.400 C 7.384 240.720,7.008 243.330,6.772 245.200 C 6.535 247.070,6.174 249.860,5.970 251.400 C 4.457 262.811,2.781 281.355,2.879 285.600 C 2.924 287.535,2.973 287.739,3.070 286.400 C 8.421 212.713,25.908 146.079,51.894 100.358 C 56.464 92.318,56.678 92.090,64.331 87.070 C 88.821 71.006,119.708 59.244,142.364 57.355 L 145.536 57.090 147.168 60.336 C 149.135 64.248,149.123 63.880,147.300 64.377 C 136.530 67.313,133.500 68.200,129.400 69.613 C 109.664 76.416,92.827 85.797,75.924 99.410 C 67.332 106.329,65.002 108.508,65.318 109.330 C 65.739 110.429,66.453 110.177,74.862 105.969 C 116.950 84.905,144.986 77.272,188.400 75.060 C 189.610 74.998,188.710 74.912,186.400 74.869 C 182.333 74.792,170.506 75.645,165.200 76.398 C 163.770 76.601,160.530 77.060,158.000 77.418 C 154.144 77.963,148.016 79.110,139.800 80.823 C 122.530 84.424,101.387 92.349,77.342 104.233 C 61.740 111.944,61.611 111.305,76.400 99.573 C 97.768 82.621,118.217 72.375,143.800 65.800 C 149.912 64.230,149.797 64.411,147.518 59.963 C 145.761 56.533,145.618 56.423,143.200 56.655 M254.102 56.910 C 253.142 58.151,250.712 63.595,250.900 64.085 C 251.016 64.386,252.526 64.966,254.255 65.372 C 275.177 70.294,298.155 80.637,314.600 92.535 C 323.387 98.893,334.400 108.187,334.400 109.244 C 334.400 109.945,333.429 109.529,322.686 104.236 C 298.398 92.269,277.450 84.420,260.200 80.823 C 251.984 79.110,245.856 77.963,242.000 77.418 C 239.470 77.060,236.230 76.601,234.800 76.398 C 229.494 75.645,217.667 74.792,213.600 74.869 C 211.290 74.912,210.390 74.998,211.600 75.060 C 255.029 77.273,283.045 84.902,325.182 105.991 C 333.168 109.988,334.470 110.418,334.716 109.143 C 334.918 108.089,323.432 98.265,314.490 91.845 C 298.542 80.394,278.749 71.382,256.800 65.577 C 250.555 63.926,250.844 64.290,252.755 60.489 C 254.681 56.659,254.302 56.828,259.572 57.458 C 284.048 60.385,312.533 71.612,337.000 87.976 C 343.473 92.306,343.625 92.475,348.106 100.358 C 374.092 146.079,391.579 212.713,396.930 286.400 C 397.027 287.739,397.076 287.535,397.121 285.600 C 397.216 281.492,395.468 262.128,394.033 251.400 C 393.827 249.860,393.465 247.070,393.228 245.200 C 392.992 243.330,392.616 240.720,392.393 239.400 C 391.902 236.490,390.480 227.832,389.995 224.800 C 389.569 222.132,388.827 218.272,387.111 209.800 C 386.666 207.600,386.157 205.080,385.979 204.200 C 379.082 169.939,362.902 125.113,348.224 99.600 C 344.016 92.284,343.882 92.131,338.513 88.497 C 315.623 73.001,288.788 61.630,266.600 58.024 C 265.060 57.774,262.810 57.404,261.600 57.202 C 257.417 56.505,254.503 56.392,254.102 56.910 M195.300 74.699 C 197.885 74.768,202.115 74.768,204.700 74.699 C 207.285 74.629,205.170 74.572,200.000 74.572 C 194.830 74.572,192.715 74.629,195.300 74.699 M134.393 181.952 C 107.375 189.248,99.961 228.967,122.133 247.630 C 143.568 265.673,173.726 248.353,173.726 218.000 C 173.726 194.367,154.312 176.573,134.393 181.952 M251.859 181.833 C 228.752 187.427,218.368 219.148,232.723 240.287 C 248.743 263.877,281.197 257.669,289.374 229.450 C 297.096 202.805,275.973 175.996,251.859 181.833 M148.136 182.384 C 176.539 189.648,182.518 232.474,157.510 249.535 C 141.073 260.749,118.367 251.671,111.626 231.191 C 102.716 204.120,123.658 176.123,148.136 182.384 M265.294 182.392 C 291.016 188.874,299.274 225.714,279.425 245.432 C 261.784 262.958,234.321 253.604,227.800 227.849 C 221.218 201.849,242.089 176.544,265.294 182.392 M56.400 273.217 C 56.400 274.188,58.503 276.588,64.768 282.770 C 82.259 300.028,102.295 313.075,125.590 322.375 C 128.994 323.735,131.839 324.906,131.911 324.978 C 132.071 325.138,118.898 342.692,118.377 343.014 C 117.859 343.334,109.264 342.540,102.600 341.557 C 73.223 337.223,46.235 326.245,24.200 309.665 C 16.088 303.561,3.077 291.104,2.677 289.058 C 2.512 288.214,2.508 288.214,2.454 289.093 C 2.346 290.865,11.752 300.352,20.959 307.756 C 45.583 327.562,81.706 341.283,114.840 343.418 L 118.680 343.666 125.540 334.551 C 129.313 329.539,132.400 325.240,132.400 325.000 C 132.400 324.759,129.491 323.414,125.935 322.011 C 101.781 312.482,79.947 297.909,62.032 279.357 C 55.574 272.671,54.854 270.699,60.351 274.754 C 74.019 284.837,92.297 294.754,108.600 300.934 C 123.429 306.555,140.675 311.085,155.400 313.228 C 156.940 313.452,159.370 313.813,160.800 314.030 C 181.814 317.218,218.186 317.218,239.200 314.030 C 240.630 313.813,243.060 313.452,244.600 313.228 C 259.325 311.085,276.571 306.555,291.400 300.934 C 307.703 294.754,325.981 284.837,339.649 274.754 C 345.146 270.699,344.426 272.671,337.968 279.357 C 320.053 297.909,298.219 312.482,274.065 322.011 C 270.509 323.414,267.600 324.759,267.600 325.000 C 267.600 325.240,270.687 329.539,274.460 334.551 L 281.320 343.666 285.160 343.418 C 326.078 340.782,369.869 320.830,394.300 293.693 C 398.512 289.014,397.856 289.174,393.382 293.916 C 372.124 316.451,342.512 332.389,308.600 339.549 C 299.222 341.529,282.662 343.656,281.623 343.014 C 281.102 342.692,267.929 325.138,268.089 324.978 C 268.161 324.906,271.006 323.735,274.410 322.375 C 300.243 312.062,324.348 295.499,341.732 276.117 C 345.854 271.521,343.756 271.276,337.581 275.633 C 298.846 302.965,254.424 315.999,200.000 315.999 C 145.576 315.999,101.154 302.965,62.419 275.633 C 57.688 272.295,56.400 271.778,56.400 273.217 " stroke="none" fill="#929dd4" fill-rule="evenodd">
</path>
</g>
</svg>