<svg xmlns="http://www.w3.org/2000/svg" width="50" height="50" viewBox="0 0 50 50" fill="none">
<ellipse cx="25.0586" cy="24.2875" rx="23.5165" ry="23.5165" fill="#4F46E5"/>
<mask id="path-2-inside-1_137_416" fill="white">
<path d="M38.3102 18.0272C39.6075 17.3476 40.1232 15.7299 39.2574 14.5487C37.9577 12.7758 36.3339 11.2543 34.4641 10.0691C31.8448 8.40883 28.8347 7.46681 25.7362 7.33767C22.6377 7.20852 19.5597 7.89678 16.8112 9.33336C14.8493 10.3589 13.1046 11.7399 11.6619 13.3986C10.7008 14.5035 11.08 16.1586 12.3162 16.9438V16.9438C13.5524 17.729 15.1742 17.3369 16.2043 16.296C17.0989 15.3919 18.1313 14.6274 19.2679 14.0334C21.1918 13.0277 23.3464 12.546 25.5153 12.6364C27.6843 12.7268 29.7914 13.3862 31.6249 14.5484C32.7081 15.235 33.6733 16.0827 34.4896 17.0581C35.4295 18.1811 37.013 18.7068 38.3102 18.0272V18.0272Z"/>
</mask>
<path d="M38.3102 18.0272C39.6075 17.3476 40.1232 15.7299 39.2574 14.5487C37.9577 12.7758 36.3339 11.2543 34.4641 10.0691C31.8448 8.40883 28.8347 7.46681 25.7362 7.33767C22.6377 7.20852 19.5597 7.89678 16.8112 9.33336C14.8493 10.3589 13.1046 11.7399 11.6619 13.3986C10.7008 14.5035 11.08 16.1586 12.3162 16.9438V16.9438C13.5524 17.729 15.1742 17.3369 16.2043 16.296C17.0989 15.3919 18.1313 14.6274 19.2679 14.0334C21.1918 13.0277 23.3464 12.546 25.5153 12.6364C27.6843 12.7268 29.7914 13.3862 31.6249 14.5484C32.7081 15.235 33.6733 16.0827 34.4896 17.0581C35.4295 18.1811 37.013 18.7068 38.3102 18.0272V18.0272Z" stroke="#BFCAEF" stroke-width="8.1982" mask="url(#path-2-inside-1_137_416)"/>
<mask id="path-3-inside-2_137_416" fill="white">
<path d="M11.4261 18.5557C10.1031 17.9276 8.50034 18.4881 8.07701 19.89C7.61675 21.4143 7.36336 22.9977 7.32694 24.5977C7.29052 26.1976 7.4716 27.7909 7.86202 29.3346C8.2211 30.7543 9.79674 31.3872 11.1469 30.8199V30.8199C12.497 30.2527 13.1004 28.6971 12.8333 27.2573C12.6784 26.4225 12.6094 25.5718 12.6289 24.7184C12.6483 23.8649 12.7559 23.0182 12.9486 22.1914C13.281 20.7652 12.749 19.1838 11.4261 18.5557V18.5557Z"/>
</mask>
<path d="M11.4261 18.5557C10.1031 17.9276 8.50034 18.4881 8.07701 19.89C7.61675 21.4143 7.36336 22.9977 7.32694 24.5977C7.29052 26.1976 7.4716 27.7909 7.86202 29.3346C8.2211 30.7543 9.79674 31.3872 11.1469 30.8199V30.8199C12.497 30.2527 13.1004 28.6971 12.8333 27.2573C12.6784 26.4225 12.6094 25.5718 12.6289 24.7184C12.6483 23.8649 12.7559 23.0182 12.9486 22.1914C13.281 20.7652 12.749 19.1838 11.4261 18.5557V18.5557Z" stroke="#BFCAEF" stroke-width="8.1982" mask="url(#path-3-inside-2_137_416)"/>
<mask id="path-4-inside-3_137_416" fill="white">
<path d="M33.4359 12.5655C34.258 11.3536 35.9238 11.0245 36.9992 12.0185C38.2756 13.1983 39.3745 14.5631 40.2572 16.0715C41.5878 18.3453 42.3934 20.8877 42.615 23.5128C42.8367 26.138 42.4688 28.7794 41.5382 31.2441C40.6077 33.7088 39.138 35.9343 37.2367 37.7579C35.3354 39.5815 33.0506 40.9571 30.5493 41.7841C28.048 42.6111 25.3935 42.8686 22.7799 42.5377C20.1662 42.2068 17.6596 41.296 15.4433 39.8718C13.973 38.9269 12.6551 37.772 11.5296 36.4476C10.5813 35.3317 10.9795 33.6811 12.2246 32.9102V32.9102C13.4698 32.1392 15.0869 32.5499 16.105 33.6025C16.766 34.286 17.5055 34.8931 18.3103 35.4102C19.8617 36.4072 21.6164 37.0448 23.4459 37.2764C25.2754 37.508 27.1336 37.3278 28.8845 36.7489C30.6354 36.17 32.2348 35.207 33.5657 33.9305C34.8966 32.654 35.9254 31.0961 36.5768 29.3709C37.2281 27.6456 37.4857 25.7966 37.3305 23.959C37.1754 22.1214 36.6115 20.3417 35.6801 18.7501C35.1969 17.9244 34.6212 17.1602 33.9659 16.4713C32.9566 15.4102 32.6137 13.7774 33.4359 12.5655V12.5655Z"/>
</mask>
<path d="M33.4359 12.5655C34.258 11.3536 35.9238 11.0245 36.9992 12.0185C38.2756 13.1983 39.3745 14.5631 40.2572 16.0715C41.5878 18.3453 42.3934 20.8877 42.615 23.5128C42.8367 26.138 42.4688 28.7794 41.5382 31.2441C40.6077 33.7088 39.138 35.9343 37.2367 37.7579C35.3354 39.5815 33.0506 40.9571 30.5493 41.7841C28.048 42.6111 25.3935 42.8686 22.7799 42.5377C20.1662 42.2068 17.6596 41.296 15.4433 39.8718C13.973 38.9269 12.6551 37.772 11.5296 36.4476C10.5813 35.3317 10.9795 33.6811 12.2246 32.9102V32.9102C13.4698 32.1392 15.0869 32.5499 16.105 33.6025C16.766 34.286 17.5055 34.8931 18.3103 35.4102C19.8617 36.4072 21.6164 37.0448 23.4459 37.2764C25.2754 37.508 27.1336 37.3278 28.8845 36.7489C30.6354 36.17 32.2348 35.207 33.5657 33.9305C34.8966 32.654 35.9254 31.0961 36.5768 29.3709C37.2281 27.6456 37.4857 25.7966 37.3305 23.959C37.1754 22.1214 36.6115 20.3417 35.6801 18.7501C35.1969 17.9244 34.6212 17.1602 33.9659 16.4713C32.9566 15.4102 32.6137 13.7774 33.4359 12.5655V12.5655Z" stroke="#EEF2FF" stroke-width="8.1982" mask="url(#path-4-inside-3_137_416)"/>
<rect x="17.7157" y="28.1653" width="5.39722" height="8.48135" rx="2.69861" transform="rotate(-45 17.7157 28.1653)" fill="#EEF2FF"/>
<rect x="24.8033" y="21.0776" width="5.39722" height="8.48135" rx="2.69861" transform="rotate(-45 24.8033 21.0776)" fill="#EEF2FF"/>
</svg>